<svg width="360" height="137" viewBox="0 0 360 137" fill="none" xmlns="http://www.w3.org/2000/svg">
<path d="M360 0H0V131.551C16.1524 135.429 36.7429 137.791 62.6857 136.757C140.114 133.601 290.59 77.4667 360 62.7132V0Z" fill="#037EEE"/>
<path opacity="0.2" d="M360 0H158C159.002 20.5685 174.344 40.2864 201.287 55.6336C228.23 70.9809 265.02 80.9585 305.089 83.7851C326.159 77.1346 345.059 71.5392 360 68.0639V0Z" fill="white"/>
<path d="M14.408 84V72.72H19C20.184 72.72 21.096 73.008 21.736 73.584C22.376 74.1493 22.696 74.9387 22.696 75.952C22.696 76.944 22.376 77.7333 21.736 78.32C21.096 78.896 20.184 79.184 19 79.184H15.736V84H14.408ZM15.736 78.08H18.872C19.6933 78.08 20.312 77.8933 20.728 77.52C21.1547 77.1467 21.368 76.624 21.368 75.952C21.368 75.2693 21.1547 74.7413 20.728 74.368C20.312 73.9947 19.6933 73.808 18.872 73.808H15.736V78.08ZM24.4976 84V77.904C24.4976 77.584 24.487 77.2587 24.4656 76.928C24.455 76.5973 24.4336 76.2773 24.4016 75.968H25.6496L25.8096 77.92L25.5856 77.936C25.6923 77.456 25.879 77.0613 26.1456 76.752C26.4123 76.4427 26.727 76.2133 27.0896 76.064C27.4523 75.904 27.831 75.824 28.2256 75.824C28.3856 75.824 28.5243 75.8293 28.6416 75.84C28.7696 75.8507 28.887 75.8773 28.9936 75.92L28.9776 77.072C28.8176 77.0187 28.6683 76.9867 28.5296 76.976C28.4016 76.9547 28.2523 76.944 28.0816 76.944C27.6123 76.944 27.2016 77.056 26.8496 77.28C26.5083 77.504 26.247 77.792 26.0656 78.144C25.895 78.496 25.8096 78.8693 25.8096 79.264V84H24.4976ZM33.5444 84.144C32.7764 84.144 32.1044 83.9787 31.5284 83.648C30.963 83.3067 30.5257 82.8267 30.2164 82.208C29.907 81.5787 29.7524 80.8373 29.7524 79.984C29.7524 79.12 29.907 78.3787 30.2164 77.76C30.5257 77.1413 30.963 76.6667 31.5284 76.336C32.1044 75.9947 32.7764 75.824 33.5444 75.824C34.323 75.824 34.995 75.9947 35.5604 76.336C36.1364 76.6667 36.579 77.1413 36.8884 77.76C37.2084 78.3787 37.3684 79.12 37.3684 79.984C37.3684 80.8373 37.2084 81.5787 36.8884 82.208C36.579 82.8267 36.1364 83.3067 35.5604 83.648C34.995 83.9787 34.323 84.144 33.5444 84.144ZM33.5444 83.088C34.3124 83.088 34.9204 82.8267 35.3684 82.304C35.8164 81.7707 36.0404 80.9973 36.0404 79.984C36.0404 78.96 35.811 78.1867 35.3524 77.664C34.9044 77.1307 34.3017 76.864 33.5444 76.864C32.787 76.864 32.1844 77.1307 31.7364 77.664C31.2884 78.1867 31.0644 78.96 31.0644 79.984C31.0644 80.9973 31.2884 81.7707 31.7364 82.304C32.1844 82.8267 32.787 83.088 33.5444 83.088ZM39.7269 84V76.976H38.1589V75.968H40.0789L39.7269 76.304V74.96C39.7269 74.0533 39.9562 73.36 40.4149 72.88C40.8735 72.4 41.5295 72.16 42.3829 72.16C42.5962 72.16 42.8149 72.1813 43.0389 72.224C43.2735 72.256 43.4655 72.304 43.6149 72.368V73.44C43.4869 73.3867 43.3269 73.344 43.1349 73.312C42.9535 73.2693 42.7669 73.248 42.5749 73.248C42.2442 73.248 41.9615 73.3173 41.7269 73.456C41.4922 73.584 41.3162 73.7813 41.1989 74.048C41.0815 74.3147 41.0229 74.656 41.0229 75.072V76.24L40.8149 75.968H43.2629V76.976H41.0229V84H39.7269ZM48.0664 84.144C46.8077 84.144 45.8157 83.7813 45.0904 83.056C44.365 82.32 44.0024 81.3013 44.0024 80C44.0024 79.1573 44.1624 78.4267 44.4824 77.808C44.8024 77.1787 45.2504 76.6933 45.8264 76.352C46.4024 76 47.0637 75.824 47.8104 75.824C48.5464 75.824 49.165 75.9787 49.6664 76.288C50.1677 76.5973 50.5517 77.04 50.8184 77.616C51.085 78.1813 51.2184 78.8533 51.2184 79.632V80.112H44.9944V79.296H50.3704L50.0984 79.504C50.0984 78.6507 49.9064 77.984 49.5224 77.504C49.1384 77.024 48.5677 76.784 47.8104 76.784C47.0104 76.784 46.3864 77.0667 45.9384 77.632C45.4904 78.1867 45.2664 78.9387 45.2664 79.888V80.032C45.2664 81.0347 45.5117 81.7973 46.0024 82.32C46.5037 82.832 47.2024 83.088 48.0984 83.088C48.5784 83.088 49.0264 83.0187 49.4424 82.88C49.869 82.7307 50.2744 82.4907 50.6584 82.16L51.1064 83.072C50.7544 83.4133 50.3064 83.68 49.7624 83.872C49.229 84.0533 48.6637 84.144 48.0664 84.144ZM55.8735 84.144C55.2335 84.144 54.6362 84.0587 54.0815 83.888C53.5268 83.7067 53.0682 83.456 52.7055 83.136L53.1535 82.224C53.5482 82.5333 53.9748 82.7627 54.4335 82.912C54.9028 83.0613 55.3882 83.136 55.8895 83.136C56.5295 83.136 57.0095 83.024 57.3295 82.8C57.6602 82.5653 57.8255 82.2453 57.8255 81.84C57.8255 81.5307 57.7188 81.2853 57.5055 81.104C57.3028 80.912 56.9668 80.7627 56.4975 80.656L55.0095 80.352C54.3268 80.2027 53.8148 79.952 53.4735 79.6C53.1322 79.2373 52.9615 78.7787 52.9615 78.224C52.9615 77.7547 53.0842 77.344 53.3295 76.992C53.5748 76.6293 53.9322 76.3467 54.4015 76.144C54.8708 75.9307 55.4202 75.824 56.0495 75.824C56.6362 75.824 57.1748 75.9147 57.6655 76.096C58.1668 76.2667 58.5828 76.5173 58.9135 76.848L58.4495 77.744C58.1295 77.4347 57.7615 77.2053 57.3455 77.056C56.9402 76.896 56.5188 76.816 56.0815 76.816C55.4522 76.816 54.9775 76.944 54.6575 77.2C54.3482 77.4453 54.1935 77.7707 54.1935 78.176C54.1935 78.4853 54.2895 78.7413 54.4815 78.944C54.6842 79.136 54.9935 79.28 55.4095 79.376L56.8975 79.68C57.6228 79.84 58.1615 80.0907 58.5135 80.432C58.8762 80.7627 59.0575 81.2107 59.0575 81.776C59.0575 82.256 58.9242 82.6773 58.6575 83.04C58.3908 83.392 58.0175 83.664 57.5375 83.856C57.0682 84.048 56.5135 84.144 55.8735 84.144ZM63.811 84.144C63.171 84.144 62.5737 84.0587 62.019 83.888C61.4643 83.7067 61.0057 83.456 60.643 83.136L61.091 82.224C61.4857 82.5333 61.9123 82.7627 62.371 82.912C62.8403 83.0613 63.3257 83.136 63.827 83.136C64.467 83.136 64.947 83.024 65.267 82.8C65.5977 82.5653 65.763 82.2453 65.763 81.84C65.763 81.5307 65.6563 81.2853 65.443 81.104C65.2403 80.912 64.9043 80.7627 64.435 80.656L62.947 80.352C62.2643 80.2027 61.7523 79.952 61.411 79.6C61.0697 79.2373 60.899 78.7787 60.899 78.224C60.899 77.7547 61.0217 77.344 61.267 76.992C61.5123 76.6293 61.8697 76.3467 62.339 76.144C62.8083 75.9307 63.3577 75.824 63.987 75.824C64.5737 75.824 65.1123 75.9147 65.603 76.096C66.1043 76.2667 66.5203 76.5173 66.851 76.848L66.387 77.744C66.067 77.4347 65.699 77.2053 65.283 77.056C64.8777 76.896 64.4563 76.816 64.019 76.816C63.3897 76.816 62.915 76.944 62.595 77.2C62.2857 77.4453 62.131 77.7707 62.131 78.176C62.131 78.4853 62.227 78.7413 62.419 78.944C62.6217 79.136 62.931 79.28 63.347 79.376L64.835 79.68C65.5603 79.84 66.099 80.0907 66.451 80.432C66.8137 80.7627 66.995 81.2107 66.995 81.776C66.995 82.256 66.8617 82.6773 66.595 83.04C66.3283 83.392 65.955 83.664 65.475 83.856C65.0057 84.048 64.451 84.144 63.811 84.144ZM69.0765 84V75.968H70.3725V84H69.0765ZM68.9165 74.144V72.688H70.5165V74.144H68.9165ZM76.185 84.144C75.417 84.144 74.745 83.9787 74.169 83.648C73.6037 83.3067 73.1663 82.8267 72.857 82.208C72.5477 81.5787 72.393 80.8373 72.393 79.984C72.393 79.12 72.5477 78.3787 72.857 77.76C73.1663 77.1413 73.6037 76.6667 74.169 76.336C74.745 75.9947 75.417 75.824 76.185 75.824C76.9637 75.824 77.6357 75.9947 78.201 76.336C78.777 76.6667 79.2197 77.1413 79.529 77.76C79.849 78.3787 80.009 79.12 80.009 79.984C80.009 80.8373 79.849 81.5787 79.529 82.208C79.2197 82.8267 78.777 83.3067 78.201 83.648C77.6357 83.9787 76.9637 84.144 76.185 84.144ZM76.185 83.088C76.953 83.088 77.561 82.8267 78.009 82.304C78.457 81.7707 78.681 80.9973 78.681 79.984C78.681 78.96 78.4517 78.1867 77.993 77.664C77.545 77.1307 76.9423 76.864 76.185 76.864C75.4277 76.864 74.825 77.1307 74.377 77.664C73.929 78.1867 73.705 78.96 73.705 79.984C73.705 80.9973 73.929 81.7707 74.377 82.304C74.825 82.8267 75.4277 83.088 76.185 83.088ZM82.0296 84V77.824C82.0296 77.5253 82.0136 77.2213 81.9816 76.912C81.9603 76.592 81.9336 76.2773 81.9016 75.968H83.1496L83.3096 77.728H83.1176C83.3523 77.1093 83.7256 76.64 84.2376 76.32C84.7603 75.9893 85.363 75.824 86.0456 75.824C86.995 75.824 87.7096 76.08 88.1896 76.592C88.6803 77.0933 88.9256 77.888 88.9256 78.976V84H87.6296V79.056C87.6296 78.2987 87.475 77.7493 87.1656 77.408C86.867 77.056 86.3976 76.88 85.7576 76.88C85.011 76.88 84.419 77.1093 83.9816 77.568C83.5443 78.0267 83.3256 78.64 83.3256 79.408V84H82.0296ZM94.4606 84.144C93.746 84.144 93.122 83.9787 92.5886 83.648C92.0553 83.3067 91.6393 82.8267 91.3406 82.208C91.0526 81.5893 90.9086 80.848 90.9086 79.984C90.9086 79.1093 91.0526 78.3627 91.3406 77.744C91.6393 77.1253 92.0553 76.6507 92.5886 76.32C93.122 75.9893 93.746 75.824 94.4606 75.824C95.186 75.824 95.81 76.0107 96.3326 76.384C96.866 76.7467 97.218 77.2427 97.3886 77.872H97.1966L97.3726 75.968H98.6206C98.5886 76.2773 98.5566 76.592 98.5246 76.912C98.5033 77.2213 98.4926 77.5253 98.4926 77.824V84H97.1966V82.112H97.3726C97.202 82.7413 96.85 83.2373 96.3166 83.6C95.7833 83.9627 95.1646 84.144 94.4606 84.144ZM94.7166 83.088C95.4846 83.088 96.0926 82.8267 96.5406 82.304C96.9886 81.7707 97.2126 80.9973 97.2126 79.984C97.2126 78.96 96.9886 78.1867 96.5406 77.664C96.0926 77.1307 95.4846 76.864 94.7166 76.864C93.9593 76.864 93.3513 77.1307 92.8926 77.664C92.4446 78.1867 92.2206 78.96 92.2206 79.984C92.2206 80.9973 92.4446 81.7707 92.8926 82.304C93.3513 82.8267 93.9593 83.088 94.7166 83.088ZM100.998 84V72.224H102.294V84H100.998ZM108.007 84L112.983 72.72H114.135L119.191 84H117.815L116.407 80.784L116.999 81.12H110.103L110.743 80.784L109.367 84H108.007ZM113.543 74.24L110.951 80.32L110.567 80.032H116.519L116.231 80.32L113.575 74.24H113.543ZM120.748 87.456V77.824C120.748 77.5253 120.732 77.2213 120.7 76.912C120.679 76.592 120.652 76.2773 120.62 75.968H121.868L122.044 77.872H121.852C122.023 77.2427 122.37 76.7467 122.892 76.384C123.415 76.0107 124.039 75.824 124.764 75.824C125.49 75.824 126.114 75.9893 126.636 76.32C127.17 76.6507 127.586 77.1253 127.884 77.744C128.183 78.3627 128.332 79.1093 128.332 79.984C128.332 80.848 128.183 81.5893 127.884 82.208C127.596 82.8267 127.186 83.3067 126.652 83.648C126.119 83.9787 125.49 84.144 124.764 84.144C124.05 84.144 123.431 83.9627 122.908 83.6C122.386 83.2373 122.039 82.7413 121.868 82.112H122.044V87.456H120.748ZM124.508 83.088C125.276 83.088 125.884 82.8267 126.332 82.304C126.791 81.7707 127.02 80.9973 127.02 79.984C127.02 78.96 126.791 78.1867 126.332 77.664C125.884 77.1307 125.276 76.864 124.508 76.864C123.751 76.864 123.143 77.1307 122.684 77.664C122.236 78.1867 122.012 78.96 122.012 79.984C122.012 80.9973 122.236 81.7707 122.684 82.304C123.143 82.8267 123.751 83.088 124.508 83.088ZM130.342 87.456V77.824C130.342 77.5253 130.326 77.2213 130.294 76.912C130.273 76.592 130.246 76.2773 130.214 75.968H131.462L131.638 77.872H131.446C131.617 77.2427 131.963 76.7467 132.486 76.384C133.009 76.0107 133.633 75.824 134.358 75.824C135.083 75.824 135.707 75.9893 136.23 76.32C136.763 76.6507 137.179 77.1253 137.478 77.744C137.777 78.3627 137.926 79.1093 137.926 79.984C137.926 80.848 137.777 81.5893 137.478 82.208C137.19 82.8267 136.779 83.3067 136.246 83.648C135.713 83.9787 135.083 84.144 134.358 84.144C133.643 84.144 133.025 83.9627 132.502 83.6C131.979 83.2373 131.633 82.7413 131.462 82.112H131.638V87.456H130.342ZM134.102 83.088C134.87 83.088 135.478 82.8267 135.926 82.304C136.385 81.7707 136.614 80.9973 136.614 79.984C136.614 78.96 136.385 78.1867 135.926 77.664C135.478 77.1307 134.87 76.864 134.102 76.864C133.345 76.864 132.737 77.1307 132.278 77.664C131.83 78.1867 131.606 78.96 131.606 79.984C131.606 80.9973 131.83 81.7707 132.278 82.304C132.737 82.8267 133.345 83.088 134.102 83.088ZM144.524 84V76.976H142.956V75.968H144.876L144.524 76.304V74.96C144.524 74.0533 144.753 73.36 145.212 72.88C145.67 72.4 146.326 72.16 147.18 72.16C147.393 72.16 147.612 72.1813 147.836 72.224C148.07 72.256 148.262 72.304 148.412 72.368V73.44C148.284 73.3867 148.124 73.344 147.932 73.312C147.75 73.2693 147.564 73.248 147.372 73.248C147.041 73.248 146.758 73.3173 146.524 73.456C146.289 73.584 146.113 73.7813 145.996 74.048C145.878 74.3147 145.82 74.656 145.82 75.072V76.24L145.612 75.968H148.06V76.976H145.82V84H144.524ZM152.591 84.144C151.823 84.144 151.151 83.9787 150.575 83.648C150.01 83.3067 149.573 82.8267 149.263 82.208C148.954 81.5787 148.799 80.8373 148.799 79.984C148.799 79.12 148.954 78.3787 149.263 77.76C149.573 77.1413 150.01 76.6667 150.575 76.336C151.151 75.9947 151.823 75.824 152.591 75.824C153.37 75.824 154.042 75.9947 154.607 76.336C155.183 76.6667 155.626 77.1413 155.935 77.76C156.255 78.3787 156.415 79.12 156.415 79.984C156.415 80.8373 156.255 81.5787 155.935 82.208C155.626 82.8267 155.183 83.3067 154.607 83.648C154.042 83.9787 153.37 84.144 152.591 84.144ZM152.591 83.088C153.359 83.088 153.967 82.8267 154.415 82.304C154.863 81.7707 155.087 80.9973 155.087 79.984C155.087 78.96 154.858 78.1867 154.399 77.664C153.951 77.1307 153.349 76.864 152.591 76.864C151.834 76.864 151.231 77.1307 150.783 77.664C150.335 78.1867 150.111 78.96 150.111 79.984C150.111 80.9973 150.335 81.7707 150.783 82.304C151.231 82.8267 151.834 83.088 152.591 83.088ZM158.404 84V77.904C158.404 77.584 158.393 77.2587 158.372 76.928C158.361 76.5973 158.34 76.2773 158.308 75.968H159.556L159.716 77.92L159.492 77.936C159.599 77.456 159.785 77.0613 160.052 76.752C160.319 76.4427 160.633 76.2133 160.996 76.064C161.359 75.904 161.737 75.824 162.132 75.824C162.292 75.824 162.431 75.8293 162.548 75.84C162.676 75.8507 162.793 75.8773 162.9 75.92L162.884 77.072C162.724 77.0187 162.575 76.9867 162.436 76.976C162.308 76.9547 162.159 76.944 161.988 76.944C161.519 76.944 161.108 77.056 160.756 77.28C160.415 77.504 160.153 77.792 159.972 78.144C159.801 78.496 159.716 78.8693 159.716 79.264V84H158.404ZM168.1 87.632L167.796 86.56C168.298 86.4427 168.714 86.304 169.044 86.144C169.386 85.9947 169.668 85.792 169.892 85.536C170.116 85.28 170.308 84.96 170.468 84.576L170.884 83.632L170.852 84.176L167.348 75.968H168.756L171.652 83.024H171.236L174.1 75.968H175.46L171.748 84.672C171.535 85.184 171.3 85.6107 171.044 85.952C170.788 86.304 170.511 86.5867 170.212 86.8C169.924 87.024 169.604 87.2 169.252 87.328C168.9 87.456 168.516 87.5573 168.1 87.632ZM180.107 84.144C179.339 84.144 178.667 83.9787 178.091 83.648C177.526 83.3067 177.088 82.8267 176.779 82.208C176.47 81.5787 176.315 80.8373 176.315 79.984C176.315 79.12 176.47 78.3787 176.779 77.76C177.088 77.1413 177.526 76.6667 178.091 76.336C178.667 75.9947 179.339 75.824 180.107 75.824C180.886 75.824 181.558 75.9947 182.123 76.336C182.699 76.6667 183.142 77.1413 183.451 77.76C183.771 78.3787 183.931 79.12 183.931 79.984C183.931 80.8373 183.771 81.5787 183.451 82.208C183.142 82.8267 182.699 83.3067 182.123 83.648C181.558 83.9787 180.886 84.144 180.107 84.144ZM180.107 83.088C180.875 83.088 181.483 82.8267 181.931 82.304C182.379 81.7707 182.603 80.9973 182.603 79.984C182.603 78.96 182.374 78.1867 181.915 77.664C181.467 77.1307 180.864 76.864 180.107 76.864C179.35 76.864 178.747 77.1307 178.299 77.664C177.851 78.1867 177.627 78.96 177.627 79.984C177.627 80.9973 177.851 81.7707 178.299 82.304C178.747 82.8267 179.35 83.088 180.107 83.088ZM188.784 84.144C187.834 84.144 187.114 83.8827 186.624 83.36C186.144 82.8373 185.904 82.0373 185.904 80.96V75.968H187.2V80.928C187.2 81.664 187.349 82.208 187.648 82.56C187.946 82.9013 188.41 83.072 189.04 83.072C189.744 83.072 190.309 82.8427 190.736 82.384C191.162 81.9253 191.376 81.312 191.376 80.544V75.968H192.672V84H191.408V82.192H191.616C191.392 82.8107 191.029 83.2907 190.528 83.632C190.037 83.9733 189.456 84.144 188.784 84.144ZM195.154 84V77.904C195.154 77.584 195.143 77.2587 195.122 76.928C195.111 76.5973 195.09 76.2773 195.058 75.968H196.306L196.466 77.92L196.242 77.936C196.349 77.456 196.535 77.0613 196.802 76.752C197.069 76.4427 197.383 76.2133 197.746 76.064C198.109 75.904 198.487 75.824 198.882 75.824C199.042 75.824 199.181 75.8293 199.298 75.84C199.426 75.8507 199.543 75.8773 199.65 75.92L199.634 77.072C199.474 77.0187 199.325 76.9867 199.186 76.976C199.058 76.9547 198.909 76.944 198.738 76.944C198.269 76.944 197.858 77.056 197.506 77.28C197.165 77.504 196.903 77.792 196.722 78.144C196.551 78.496 196.466 78.8693 196.466 79.264V84H195.154ZM17.832 104.144C16.5733 104.144 15.5813 103.781 14.856 103.056C14.1307 102.32 13.768 101.301 13.768 100C13.768 99.1573 13.928 98.4267 14.248 97.808C14.568 97.1787 15.016 96.6933 15.592 96.352C16.168 96 16.8293 95.824 17.576 95.824C18.312 95.824 18.9307 95.9787 19.432 96.288C19.9333 96.5973 20.3173 97.04 20.584 97.616C20.8507 98.1813 20.984 98.8533 20.984 99.632V100.112H14.76V99.296H20.136L19.864 99.504C19.864 98.6507 19.672 97.984 19.288 97.504C18.904 97.024 18.3333 96.784 17.576 96.784C16.776 96.784 16.152 97.0667 15.704 97.632C15.256 98.1867 15.032 98.9387 15.032 99.888V100.032C15.032 101.035 15.2773 101.797 15.768 102.32C16.2693 102.832 16.968 103.088 17.864 103.088C18.344 103.088 18.792 103.019 19.208 102.88C19.6347 102.731 20.04 102.491 20.424 102.16L20.872 103.072C20.52 103.413 20.072 103.68 19.528 103.872C18.9947 104.053 18.4293 104.144 17.832 104.144ZM28.0231 104.144C26.8925 104.144 25.9325 103.909 25.1431 103.44C24.3538 102.971 23.7458 102.304 23.3191 101.44C22.9031 100.576 22.6951 99.5467 22.6951 98.352C22.6951 97.1573 22.9031 96.1333 23.3191 95.28C23.7458 94.416 24.3538 93.7493 25.1431 93.28C25.9325 92.8107 26.8925 92.576 28.0231 92.576C28.8231 92.576 29.5378 92.6987 30.1671 92.944C30.7965 93.1893 31.3458 93.5467 31.8151 94.016L31.3191 95.072C30.8071 94.624 30.3005 94.2987 29.7991 94.096C29.2978 93.8827 28.7111 93.776 28.0391 93.776C26.7485 93.776 25.7671 94.176 25.0951 94.976C24.4231 95.776 24.0871 96.9013 24.0871 98.352C24.0871 99.8027 24.4231 100.933 25.0951 101.744C25.7671 102.544 26.7485 102.944 28.0391 102.944C28.7111 102.944 29.2978 102.843 29.7991 102.64C30.3005 102.427 30.8071 102.091 31.3191 101.632L31.8151 102.704C31.3458 103.163 30.7965 103.52 30.1671 103.776C29.5378 104.021 28.8231 104.144 28.0231 104.144ZM36.6381 104.144C35.8701 104.144 35.1981 103.979 34.6221 103.648C34.0568 103.307 33.6195 102.827 33.3101 102.208C33.0008 101.579 32.8461 100.837 32.8461 99.984C32.8461 99.12 33.0008 98.3787 33.3101 97.76C33.6195 97.1413 34.0568 96.6667 34.6221 96.336C35.1981 95.9947 35.8701 95.824 36.6381 95.824C37.4168 95.824 38.0888 95.9947 38.6541 96.336C39.2301 96.6667 39.6728 97.1413 39.9821 97.76C40.3021 98.3787 40.4621 99.12 40.4621 99.984C40.4621 100.837 40.3021 101.579 39.9821 102.208C39.6728 102.827 39.2301 103.307 38.6541 103.648C38.0888 103.979 37.4168 104.144 36.6381 104.144ZM36.6381 103.088C37.4061 103.088 38.0141 102.827 38.4621 102.304C38.9101 101.771 39.1341 100.997 39.1341 99.984C39.1341 98.96 38.9048 98.1867 38.4461 97.664C37.9981 97.1307 37.3955 96.864 36.6381 96.864C35.8808 96.864 35.2781 97.1307 34.8301 97.664C34.3821 98.1867 34.1581 98.96 34.1581 99.984C34.1581 100.997 34.3821 101.771 34.8301 102.304C35.2781 102.827 35.8808 103.088 36.6381 103.088ZM42.4828 104V97.824C42.4828 97.5253 42.4668 97.2213 42.4348 96.912C42.4134 96.592 42.3868 96.2773 42.3548 95.968H43.6028L43.7628 97.728H43.5707C43.7841 97.12 44.1201 96.6507 44.5788 96.32C45.0481 95.9893 45.6134 95.824 46.2748 95.824C46.9468 95.824 47.4908 95.984 47.9068 96.304C48.3334 96.624 48.6214 97.12 48.7708 97.792H48.5308C48.7334 97.184 49.0908 96.704 49.6028 96.352C50.1148 96 50.7121 95.824 51.3948 95.824C52.2801 95.824 52.9468 96.08 53.3948 96.592C53.8428 97.0933 54.0668 97.888 54.0668 98.976V104H52.7708V99.056C52.7708 98.2987 52.6374 97.7493 52.3708 97.408C52.1041 97.056 51.6774 96.88 51.0908 96.88C50.4188 96.88 49.8854 97.1147 49.4908 97.584C49.1068 98.0427 48.9148 98.6613 48.9148 99.44V104H47.6188V99.056C47.6188 98.2987 47.4854 97.7493 47.2188 97.408C46.9521 97.056 46.5254 96.88 45.9388 96.88C45.2668 96.88 44.7388 97.1147 44.3548 97.584C43.9708 98.0427 43.7788 98.6613 43.7788 99.44V104H42.4828ZM56.5296 104V97.824C56.5296 97.5253 56.5136 97.2213 56.4816 96.912C56.4603 96.592 56.4336 96.2773 56.4016 95.968H57.6496L57.8096 97.728H57.6176C57.831 97.12 58.167 96.6507 58.6256 96.32C59.095 95.9893 59.6603 95.824 60.3216 95.824C60.9936 95.824 61.5376 95.984 61.9536 96.304C62.3803 96.624 62.6683 97.12 62.8176 97.792H62.5776C62.7803 97.184 63.1376 96.704 63.6496 96.352C64.1616 96 64.759 95.824 65.4416 95.824C66.327 95.824 66.9936 96.08 67.4416 96.592C67.8896 97.0933 68.1136 97.888 68.1136 98.976V104H66.8176V99.056C66.8176 98.2987 66.6843 97.7493 66.4176 97.408C66.151 97.056 65.7243 96.88 65.1376 96.88C64.4656 96.88 63.9323 97.1147 63.5376 97.584C63.1536 98.0427 62.9616 98.6613 62.9616 99.44V104H61.6656V99.056C61.6656 98.2987 61.5323 97.7493 61.2656 97.408C60.999 97.056 60.5723 96.88 59.9856 96.88C59.3136 96.88 58.7856 97.1147 58.4016 97.584C58.0176 98.0427 57.8256 98.6613 57.8256 99.44V104H56.5296ZM74.1445 104.144C72.8858 104.144 71.8938 103.781 71.1685 103.056C70.4432 102.32 70.0805 101.301 70.0805 100C70.0805 99.1573 70.2405 98.4267 70.5605 97.808C70.8805 97.1787 71.3285 96.6933 71.9045 96.352C72.4805 96 73.1418 95.824 73.8885 95.824C74.6245 95.824 75.2432 95.9787 75.7445 96.288C76.2458 96.5973 76.6298 97.04 76.8965 97.616C77.1632 98.1813 77.2965 98.8533 77.2965 99.632V100.112H71.0725V99.296H76.4485L76.1765 99.504C76.1765 98.6507 75.9845 97.984 75.6005 97.504C75.2165 97.024 74.6458 96.784 73.8885 96.784C73.0885 96.784 72.4645 97.0667 72.0165 97.632C71.5685 98.1867 71.3445 98.9387 71.3445 99.888V100.032C71.3445 101.035 71.5898 101.797 72.0805 102.32C72.5818 102.832 73.2805 103.088 74.1765 103.088C74.6565 103.088 75.1045 103.019 75.5205 102.88C75.9472 102.731 76.3525 102.491 76.7365 102.16L77.1845 103.072C76.8325 103.413 76.3845 103.68 75.8405 103.872C75.3072 104.053 74.7418 104.144 74.1445 104.144ZM79.2476 104V97.904C79.2476 97.584 79.237 97.2587 79.2156 96.928C79.205 96.5973 79.1836 96.2773 79.1516 95.968H80.3996L80.5596 97.92L80.3356 97.936C80.4423 97.456 80.629 97.0613 80.8956 96.752C81.1623 96.4427 81.477 96.2133 81.8396 96.064C82.2023 95.904 82.581 95.824 82.9756 95.824C83.1356 95.824 83.2743 95.8293 83.3916 95.84C83.5196 95.8507 83.637 95.8773 83.7436 95.92L83.7276 97.072C83.5676 97.0187 83.4183 96.9867 83.2796 96.976C83.1516 96.9547 83.0023 96.944 82.8316 96.944C82.3623 96.944 81.9516 97.056 81.5996 97.28C81.2583 97.504 80.997 97.792 80.8156 98.144C80.645 98.496 80.5596 98.8693 80.5596 99.264V104H79.2476ZM88.3744 104.144C87.585 104.144 86.897 103.973 86.3104 103.632C85.7344 103.291 85.2864 102.805 84.9664 102.176C84.657 101.547 84.5024 100.8 84.5024 99.936C84.5024 99.0613 84.6624 98.32 84.9824 97.712C85.3024 97.0933 85.7504 96.624 86.3264 96.304C86.913 95.984 87.5957 95.824 88.3744 95.824C88.8864 95.824 89.3824 95.9147 89.8624 96.096C90.353 96.2773 90.7584 96.5333 91.0784 96.864L90.6144 97.792C90.2944 97.4827 89.9424 97.2533 89.5584 97.104C89.185 96.9547 88.817 96.88 88.4544 96.88C87.6224 96.88 86.977 97.1413 86.5184 97.664C86.0597 98.1867 85.8304 98.9493 85.8304 99.952C85.8304 100.944 86.0597 101.712 86.5184 102.256C86.977 102.8 87.6224 103.072 88.4544 103.072C88.8064 103.072 89.169 103.003 89.5424 102.864C89.9264 102.725 90.2837 102.496 90.6144 102.176L91.0784 103.088C90.7477 103.429 90.337 103.691 89.8464 103.872C89.3557 104.053 88.865 104.144 88.3744 104.144ZM96.332 104.144C95.0733 104.144 94.0813 103.781 93.356 103.056C92.6307 102.32 92.268 101.301 92.268 100C92.268 99.1573 92.428 98.4267 92.748 97.808C93.068 97.1787 93.516 96.6933 94.092 96.352C94.668 96 95.3293 95.824 96.076 95.824C96.812 95.824 97.4307 95.9787 97.932 96.288C98.4333 96.5973 98.8173 97.04 99.084 97.616C99.3507 98.1813 99.484 98.8533 99.484 99.632V100.112H93.26V99.296H98.636L98.364 99.504C98.364 98.6507 98.172 97.984 97.788 97.504C97.404 97.024 96.8333 96.784 96.076 96.784C95.276 96.784 94.652 97.0667 94.204 97.632C93.756 98.1867 93.532 98.9387 93.532 99.888V100.032C93.532 101.035 93.7773 101.797 94.268 102.32C94.7693 102.832 95.468 103.088 96.364 103.088C96.844 103.088 97.292 103.019 97.708 102.88C98.1347 102.731 98.54 102.491 98.924 102.16L99.372 103.072C99.02 103.413 98.572 103.68 98.028 103.872C97.4947 104.053 96.9293 104.144 96.332 104.144ZM109.671 104.144C108.946 104.144 108.322 103.963 107.799 103.6C107.276 103.227 106.924 102.72 106.743 102.08H106.919V104H105.639V92.224H106.935V97.84H106.743C106.924 97.2213 107.276 96.7307 107.799 96.368C108.322 96.0053 108.946 95.824 109.671 95.824C110.396 95.824 111.02 95.9947 111.543 96.336C112.076 96.6667 112.487 97.1413 112.775 97.76C113.074 98.3787 113.223 99.12 113.223 99.984C113.223 100.848 113.074 101.589 112.775 102.208C112.476 102.827 112.06 103.307 111.527 103.648C111.004 103.979 110.386 104.144 109.671 104.144ZM109.399 103.088C110.156 103.088 110.764 102.827 111.223 102.304C111.682 101.781 111.911 101.008 111.911 99.984C111.911 98.96 111.682 98.1867 111.223 97.664C110.764 97.1307 110.156 96.864 109.399 96.864C108.642 96.864 108.034 97.1307 107.575 97.664C107.127 98.1867 106.903 98.96 106.903 99.984C106.903 100.997 107.127 101.771 107.575 102.304C108.034 102.827 108.642 103.088 109.399 103.088ZM118.065 104.144C117.115 104.144 116.395 103.883 115.905 103.36C115.425 102.837 115.185 102.037 115.185 100.96V95.968H116.481V100.928C116.481 101.664 116.63 102.208 116.929 102.56C117.227 102.901 117.691 103.072 118.321 103.072C119.025 103.072 119.59 102.843 120.017 102.384C120.443 101.925 120.657 101.312 120.657 100.544V95.968H121.953V104H120.689V102.192H120.897C120.673 102.811 120.31 103.291 119.809 103.632C119.318 103.973 118.737 104.144 118.065 104.144ZM127.139 104.144C126.499 104.144 125.902 104.059 125.347 103.888C124.792 103.707 124.334 103.456 123.971 103.136L124.419 102.224C124.814 102.533 125.24 102.763 125.699 102.912C126.168 103.061 126.654 103.136 127.155 103.136C127.795 103.136 128.275 103.024 128.595 102.8C128.926 102.565 129.091 102.245 129.091 101.84C129.091 101.531 128.984 101.285 128.771 101.104C128.568 100.912 128.232 100.763 127.763 100.656L126.275 100.352C125.592 100.203 125.08 99.952 124.739 99.6C124.398 99.2373 124.227 98.7787 124.227 98.224C124.227 97.7547 124.35 97.344 124.595 96.992C124.84 96.6293 125.198 96.3467 125.667 96.144C126.136 95.9307 126.686 95.824 127.315 95.824C127.902 95.824 128.44 95.9147 128.931 96.096C129.432 96.2667 129.848 96.5173 130.179 96.848L129.715 97.744C129.395 97.4347 129.027 97.2053 128.611 97.056C128.206 96.896 127.784 96.816 127.347 96.816C126.718 96.816 126.243 96.944 125.923 97.2C125.614 97.4453 125.459 97.7707 125.459 98.176C125.459 98.4853 125.555 98.7413 125.747 98.944C125.95 99.136 126.259 99.28 126.675 99.376L128.163 99.68C128.888 99.84 129.427 100.091 129.779 100.432C130.142 100.763 130.323 101.211 130.323 101.776C130.323 102.256 130.19 102.677 129.923 103.04C129.656 103.392 129.283 103.664 128.803 103.856C128.334 104.048 127.779 104.144 127.139 104.144ZM132.405 104V95.968H133.701V104H132.405ZM132.245 94.144V92.688H133.845V94.144H132.245ZM136.217 104V97.824C136.217 97.5253 136.201 97.2213 136.169 96.912C136.148 96.592 136.121 96.2773 136.089 95.968H137.337L137.497 97.728H137.305C137.54 97.1093 137.913 96.64 138.425 96.32C138.948 95.9893 139.55 95.824 140.233 95.824C141.182 95.824 141.897 96.08 142.377 96.592C142.868 97.0933 143.113 97.888 143.113 98.976V104H141.817V99.056C141.817 98.2987 141.662 97.7493 141.353 97.408C141.054 97.056 140.585 96.88 139.945 96.88C139.198 96.88 138.606 97.1093 138.169 97.568C137.732 98.0267 137.513 98.64 137.513 99.408V104H136.217ZM149.16 104.144C147.901 104.144 146.909 103.781 146.184 103.056C145.459 102.32 145.096 101.301 145.096 100C145.096 99.1573 145.256 98.4267 145.576 97.808C145.896 97.1787 146.344 96.6933 146.92 96.352C147.496 96 148.157 95.824 148.904 95.824C149.64 95.824 150.259 95.9787 150.76 96.288C151.261 96.5973 151.645 97.04 151.912 97.616C152.179 98.1813 152.312 98.8533 152.312 99.632V100.112H146.088V99.296H151.464L151.192 99.504C151.192 98.6507 151 97.984 150.616 97.504C150.232 97.024 149.661 96.784 148.904 96.784C148.104 96.784 147.48 97.0667 147.032 97.632C146.584 98.1867 146.36 98.9387 146.36 99.888V100.032C146.36 101.035 146.605 101.797 147.096 102.32C147.597 102.832 148.296 103.088 149.192 103.088C149.672 103.088 150.12 103.019 150.536 102.88C150.963 102.731 151.368 102.491 151.752 102.16L152.2 103.072C151.848 103.413 151.4 103.68 150.856 103.872C150.323 104.053 149.757 104.144 149.16 104.144ZM156.967 104.144C156.327 104.144 155.73 104.059 155.175 103.888C154.621 103.707 154.162 103.456 153.799 103.136L154.247 102.224C154.642 102.533 155.069 102.763 155.527 102.912C155.997 103.061 156.482 103.136 156.983 103.136C157.623 103.136 158.103 103.024 158.423 102.8C158.754 102.565 158.919 102.245 158.919 101.84C158.919 101.531 158.813 101.285 158.599 101.104C158.397 100.912 158.061 100.763 157.591 100.656L156.103 100.352C155.421 100.203 154.909 99.952 154.567 99.6C154.226 99.2373 154.055 98.7787 154.055 98.224C154.055 97.7547 154.178 97.344 154.423 96.992C154.669 96.6293 155.026 96.3467 155.495 96.144C155.965 95.9307 156.514 95.824 157.143 95.824C157.73 95.824 158.269 95.9147 158.759 96.096C159.261 96.2667 159.677 96.5173 160.007 96.848L159.543 97.744C159.223 97.4347 158.855 97.2053 158.439 97.056C158.034 96.896 157.613 96.816 157.175 96.816C156.546 96.816 156.071 96.944 155.751 97.2C155.442 97.4453 155.287 97.7707 155.287 98.176C155.287 98.4853 155.383 98.7413 155.575 98.944C155.778 99.136 156.087 99.28 156.503 99.376L157.991 99.68C158.717 99.84 159.255 100.091 159.607 100.432C159.97 100.763 160.151 101.211 160.151 101.776C160.151 102.256 160.018 102.677 159.751 103.04C159.485 103.392 159.111 103.664 158.631 103.856C158.162 104.048 157.607 104.144 156.967 104.144ZM164.905 104.144C164.265 104.144 163.667 104.059 163.113 103.888C162.558 103.707 162.099 103.456 161.737 103.136L162.185 102.224C162.579 102.533 163.006 102.763 163.465 102.912C163.934 103.061 164.419 103.136 164.921 103.136C165.561 103.136 166.041 103.024 166.361 102.8C166.691 102.565 166.857 102.245 166.857 101.84C166.857 101.531 166.75 101.285 166.537 101.104C166.334 100.912 165.998 100.763 165.529 100.656L164.041 100.352C163.358 100.203 162.846 99.952 162.505 99.6C162.163 99.2373 161.993 98.7787 161.993 98.224C161.993 97.7547 162.115 97.344 162.361 96.992C162.606 96.6293 162.963 96.3467 163.433 96.144C163.902 95.9307 164.451 95.824 165.081 95.824C165.667 95.824 166.206 95.9147 166.697 96.096C167.198 96.2667 167.614 96.5173 167.945 96.848L167.481 97.744C167.161 97.4347 166.793 97.2053 166.377 97.056C165.971 96.896 165.55 96.816 165.113 96.816C164.483 96.816 164.009 96.944 163.689 97.2C163.379 97.4453 163.225 97.7707 163.225 98.176C163.225 98.4853 163.321 98.7413 163.513 98.944C163.715 99.136 164.025 99.28 164.441 99.376L165.929 99.68C166.654 99.84 167.193 100.091 167.545 100.432C167.907 100.763 168.089 101.211 168.089 101.776C168.089 102.256 167.955 102.677 167.689 103.04C167.422 103.392 167.049 103.664 166.569 103.856C166.099 104.048 165.545 104.144 164.905 104.144Z" fill="white"/>
<path d="M16.904 50V40.416H13.176V38.72H22.696V40.416H18.968V50H16.904ZM26.6483 50.16C25.2936 50.16 24.2323 49.7867 23.4643 49.04C22.6963 48.2933 22.3123 47.2693 22.3123 45.968C22.3123 45.1253 22.4776 44.3893 22.8083 43.76C23.1389 43.1307 23.5976 42.64 24.1843 42.288C24.7816 41.936 25.4749 41.76 26.2643 41.76C27.0429 41.76 27.6936 41.9253 28.2163 42.256C28.7389 42.5867 29.1336 43.0507 29.4003 43.648C29.6776 44.2453 29.8163 44.944 29.8163 45.744V46.272H23.9283V45.216H28.3923L28.1203 45.44C28.1203 44.6933 27.9603 44.1227 27.6403 43.728C27.3309 43.3333 26.8776 43.136 26.2803 43.136C25.6189 43.136 25.1069 43.3707 24.7443 43.84C24.3923 44.3093 24.2163 44.9653 24.2163 45.808V46.016C24.2163 46.8907 24.4296 47.5467 24.8563 47.984C25.2936 48.4107 25.9069 48.624 26.6963 48.624C27.1549 48.624 27.5816 48.5653 27.9763 48.448C28.3816 48.32 28.7656 48.1173 29.1283 47.84L29.7203 49.184C29.3363 49.4933 28.8776 49.7333 28.3443 49.904C27.8109 50.0747 27.2456 50.16 26.6483 50.16ZM35.2219 50.16C34.3899 50.16 33.6592 49.9893 33.0299 49.648C32.4112 49.3067 31.9312 48.8213 31.5899 48.192C31.2485 47.552 31.0779 46.7947 31.0779 45.92C31.0779 45.0453 31.2485 44.2987 31.5899 43.68C31.9419 43.0613 32.4272 42.5867 33.0459 42.256C33.6645 41.9253 34.3899 41.76 35.2219 41.76C35.7552 41.76 36.2725 41.8453 36.7739 42.016C37.2859 42.176 37.7019 42.4107 38.0219 42.72L37.4139 44.112C37.1259 43.8453 36.8005 43.648 36.4379 43.52C36.0859 43.3813 35.7392 43.312 35.3979 43.312C34.6832 43.312 34.1232 43.536 33.7179 43.984C33.3232 44.432 33.1259 45.0827 33.1259 45.936C33.1259 46.7893 33.3232 47.4453 33.7179 47.904C34.1232 48.3627 34.6832 48.592 35.3979 48.592C35.7285 48.592 36.0699 48.528 36.4219 48.4C36.7845 48.272 37.1152 48.0747 37.4139 47.808L38.0219 49.184C37.6912 49.4933 37.2699 49.7333 36.7579 49.904C36.2565 50.0747 35.7445 50.16 35.2219 50.16ZM39.5724 50V38.224H41.5724V43.536H41.3484C41.5937 42.96 41.9724 42.5227 42.4844 42.224C42.9964 41.9147 43.583 41.76 44.2444 41.76C45.2044 41.76 45.919 42.032 46.3884 42.576C46.8577 43.1093 47.0924 43.9253 47.0924 45.024V50H45.0924V45.12C45.0924 44.4907 44.9697 44.0373 44.7244 43.76C44.4897 43.472 44.111 43.328 43.5884 43.328C42.9804 43.328 42.4897 43.52 42.1164 43.904C41.7537 44.2773 41.5724 44.7787 41.5724 45.408V50H39.5724ZM49.373 50V38.72H54.317C55.5437 38.72 56.4877 38.9813 57.149 39.504C57.8103 40.016 58.141 40.7307 58.141 41.648C58.141 42.3307 57.9383 42.9067 57.533 43.376C57.1277 43.8453 56.5677 44.16 55.853 44.32V44.08C56.6743 44.1973 57.309 44.496 57.757 44.976C58.2157 45.4453 58.445 46.0693 58.445 46.848C58.445 47.8507 58.0983 48.6293 57.405 49.184C56.7117 49.728 55.7463 50 54.509 50H49.373ZM51.357 48.432H54.269C54.9623 48.432 55.501 48.304 55.885 48.048C56.269 47.7813 56.461 47.3493 56.461 46.752C56.461 46.144 56.269 45.712 55.885 45.456C55.501 45.1893 54.9623 45.056 54.269 45.056H51.357V48.432ZM51.357 43.504H53.965C54.701 43.504 55.245 43.3707 55.597 43.104C55.9597 42.8267 56.141 42.4213 56.141 41.888C56.141 41.3547 55.9597 40.9547 55.597 40.688C55.245 40.4107 54.701 40.272 53.965 40.272H51.357V43.504ZM60.2439 50V43.984C60.2439 43.6427 60.2332 43.296 60.2119 42.944C60.2012 42.592 60.1745 42.2507 60.1319 41.92H62.0679L62.2919 44.128H61.9719C62.0785 43.5947 62.2545 43.152 62.4999 42.8C62.7559 42.448 63.0652 42.1867 63.4279 42.016C63.7905 41.8453 64.1852 41.76 64.6119 41.76C64.8039 41.76 64.9585 41.7707 65.0759 41.792C65.1932 41.8027 65.3105 41.8293 65.4279 41.872L65.4119 43.632C65.2092 43.5467 65.0332 43.4933 64.8839 43.472C64.7452 43.4507 64.5692 43.44 64.3559 43.44C63.8972 43.44 63.5079 43.536 63.1879 43.728C62.8785 43.92 62.6439 44.1867 62.4839 44.528C62.3345 44.8693 62.2599 45.2587 62.2599 45.696V50H60.2439ZM66.5411 50V41.92H68.5411V50H66.5411ZM66.4291 40.4V38.448H68.6531V40.4H66.4291ZM69.465 50L73.225 45.376V46.288L69.673 41.92H72.041L74.361 44.912H73.641L75.961 41.92H78.313L74.793 46.288V45.376L78.537 50H76.153L73.641 46.784H74.361L71.833 50H69.465Z" fill="white"/>
<path d="M14 63L202 63" stroke="white"/>
</svg>
