<svg width="360" height="147" viewBox="0 0 360 147" fill="none" xmlns="http://www.w3.org/2000/svg">
<path d="M359.943 12.4486C359.943 8.81973 359.943 4.59361 359.943 0C350.718 0 336.002 0.00252112 328.137 4.11796e-06H0V76.6954C72.0343 98.0275 219.781 143.08 297.284 146.035C323.24 147.02 343.84 144.791 360 141.159L359.943 12.4486Z" fill="#037EEE"/>
<path d="M230.371 56.6401V39.8681H223.847V36.9001H240.507V39.8681H233.983V56.6401H230.371ZM247.424 56.9201C245.053 56.9201 243.196 56.2668 241.852 54.9601C240.508 53.6535 239.836 51.8615 239.836 49.5841C239.836 48.1095 240.125 46.8215 240.704 45.7201C241.282 44.6188 242.085 43.7601 243.112 43.1441C244.157 42.5281 245.37 42.2201 246.752 42.2201C248.114 42.2201 249.253 42.5095 250.168 43.0881C251.082 43.6668 251.773 44.4788 252.24 45.5241C252.725 46.5695 252.968 47.7921 252.968 49.1921V50.1161H242.664V48.2681H250.476L250 48.6601C250 47.3535 249.72 46.3548 249.16 45.6641C248.618 44.9735 247.825 44.6281 246.78 44.6281C245.622 44.6281 244.726 45.0388 244.092 45.8601C243.476 46.6815 243.168 47.8295 243.168 49.3041V49.6681C243.168 51.1988 243.541 52.3468 244.288 53.1121C245.053 53.8588 246.126 54.2321 247.508 54.2321C248.31 54.2321 249.057 54.1295 249.748 53.9241C250.457 53.7001 251.129 53.3455 251.764 52.8601L252.8 55.2121C252.128 55.7535 251.325 56.1735 250.392 56.4721C249.458 56.7708 248.469 56.9201 247.424 56.9201ZM262.427 56.9201C260.971 56.9201 259.693 56.6215 258.591 56.0241C257.509 55.4268 256.669 54.5775 256.071 53.4761C255.474 52.3561 255.175 51.0308 255.175 49.5001C255.175 47.9695 255.474 46.6628 256.071 45.5801C256.687 44.4975 257.537 43.6668 258.619 43.0881C259.702 42.5095 260.971 42.2201 262.427 42.2201C263.361 42.2201 264.266 42.3695 265.143 42.6681C266.039 42.9481 266.767 43.3588 267.327 43.9001L266.263 46.3361C265.759 45.8695 265.19 45.5241 264.555 45.3001C263.939 45.0575 263.333 44.9361 262.735 44.9361C261.485 44.9361 260.505 45.3281 259.795 46.1121C259.105 46.8961 258.759 48.0348 258.759 49.5281C258.759 51.0215 259.105 52.1695 259.795 52.9721C260.505 53.7748 261.485 54.1761 262.735 54.1761C263.314 54.1761 263.911 54.0641 264.527 53.8401C265.162 53.6161 265.741 53.2708 266.263 52.8041L267.327 55.2121C266.749 55.7535 266.011 56.1735 265.115 56.4721C264.238 56.7708 263.342 56.9201 262.427 56.9201ZM270.041 56.6401V36.0321H273.541V45.3281H273.149C273.578 44.3201 274.241 43.5548 275.137 43.0321C276.033 42.4908 277.059 42.2201 278.217 42.2201C279.897 42.2201 281.147 42.6961 281.969 43.6481C282.79 44.5815 283.201 46.0095 283.201 47.9321V56.6401H279.701V48.1001C279.701 46.9988 279.486 46.2055 279.057 45.7201C278.646 45.2161 277.983 44.9641 277.069 44.9641C276.005 44.9641 275.146 45.3001 274.493 45.9721C273.858 46.6255 273.541 47.5028 273.541 48.6041V56.6401H270.041ZM287.192 56.6401V36.9001H295.844C297.99 36.9001 299.642 37.3575 300.8 38.2721C301.957 39.1681 302.536 40.4188 302.536 42.0241C302.536 43.2188 302.181 44.2268 301.472 45.0481C300.762 45.8695 299.782 46.4201 298.532 46.7001V46.2801C299.969 46.4855 301.08 47.0081 301.864 47.8481C302.666 48.6695 303.068 49.7615 303.068 51.1241C303.068 52.8788 302.461 54.2415 301.248 55.2121C300.034 56.1641 298.345 56.6401 296.18 56.6401H287.192ZM290.664 53.8961H295.76C296.973 53.8961 297.916 53.6721 298.588 53.2241C299.26 52.7575 299.596 52.0015 299.596 50.9561C299.596 49.8921 299.26 49.1361 298.588 48.6881C297.916 48.2215 296.973 47.9881 295.76 47.9881H290.664V53.8961ZM290.664 45.2721H295.228C296.516 45.2721 297.468 45.0388 298.084 44.5721C298.718 44.0868 299.036 43.3775 299.036 42.4441C299.036 41.5108 298.718 40.8108 298.084 40.3441C297.468 39.8588 296.516 39.6161 295.228 39.6161H290.664V45.2721ZM306.216 56.6401V46.1121C306.216 45.5148 306.197 44.9081 306.16 44.2921C306.141 43.6761 306.095 43.0788 306.02 42.5001H309.408L309.8 46.3641H309.24C309.427 45.4308 309.735 44.6561 310.164 44.0401C310.612 43.4241 311.153 42.9668 311.788 42.6681C312.423 42.3695 313.113 42.2201 313.86 42.2201C314.196 42.2201 314.467 42.2388 314.672 42.2761C314.877 42.2948 315.083 42.3415 315.288 42.4161L315.26 45.4961C314.905 45.3468 314.597 45.2535 314.336 45.2161C314.093 45.1788 313.785 45.1601 313.412 45.1601C312.609 45.1601 311.928 45.3281 311.368 45.6641C310.827 46.0001 310.416 46.4668 310.136 47.0641C309.875 47.6615 309.744 48.3428 309.744 49.1081V56.6401H306.216ZM317.236 56.6401V42.5001H320.736V56.6401H317.236ZM317.04 39.8401V36.4241H320.932V39.8401H317.04ZM322.353 56.6401L328.933 48.5481V50.1441L322.717 42.5001H326.861L330.921 47.7361H329.661L333.721 42.5001H337.837L331.677 50.1441V48.5481L338.229 56.6401H334.057L329.661 51.0121H330.921L326.497 56.6401H322.353Z" fill="white"/>
<line x1="105" y1="65.9858" x2="338" y2="65.9859" stroke="white"/>
<path d="M200.022 88.623L204.998 77.343H206.15L211.206 88.623H209.83L208.422 85.407L209.014 85.743H202.118L202.758 85.407L201.382 88.623H200.022ZM205.558 78.863L202.966 84.943L202.582 84.655H208.534L208.246 84.943L205.59 78.863H205.558ZM212.764 88.623V82.447C212.764 82.1484 212.748 81.8444 212.716 81.535C212.695 81.215 212.668 80.9004 212.636 80.591H213.884L214.044 82.351H213.852C214.087 81.7324 214.46 81.263 214.972 80.943C215.495 80.6124 216.097 80.447 216.78 80.447C217.729 80.447 218.444 80.703 218.924 81.215C219.415 81.7164 219.66 82.511 219.66 83.599V88.623H218.364V83.679C218.364 82.9217 218.209 82.3724 217.9 82.031C217.601 81.679 217.132 81.503 216.492 81.503C215.745 81.503 215.153 81.7324 214.716 82.191C214.279 82.6497 214.06 83.263 214.06 84.031V88.623H212.764ZM225.179 88.767C224.475 88.767 223.856 88.6017 223.323 88.271C222.79 87.9297 222.374 87.4497 222.075 86.831C221.787 86.2124 221.643 85.471 221.643 84.607C221.643 83.7324 221.787 82.9857 222.075 82.367C222.374 81.7484 222.79 81.2737 223.323 80.943C223.856 80.6124 224.475 80.447 225.179 80.447C225.904 80.447 226.528 80.6284 227.051 80.991C227.584 81.3537 227.942 81.8444 228.123 82.463H227.931V76.847H229.227V88.623H227.947V86.703H228.123C227.952 87.343 227.6 87.8497 227.067 88.223C226.534 88.5857 225.904 88.767 225.179 88.767ZM225.451 87.711C226.208 87.711 226.816 87.4497 227.275 86.927C227.734 86.3937 227.963 85.6204 227.963 84.607C227.963 83.583 227.734 82.8097 227.275 82.287C226.816 81.7537 226.208 81.487 225.451 81.487C224.694 81.487 224.086 81.7537 223.627 82.287C223.179 82.8097 222.955 83.583 222.955 84.607C222.955 85.6204 223.179 86.3937 223.627 86.927C224.086 87.4497 224.694 87.711 225.451 87.711ZM234.789 88.767C234.074 88.767 233.45 88.6017 232.917 88.271C232.383 87.9297 231.967 87.4497 231.669 86.831C231.381 86.2124 231.237 85.471 231.237 84.607C231.237 83.7324 231.381 82.9857 231.669 82.367C231.967 81.7484 232.383 81.2737 232.917 80.943C233.45 80.6124 234.074 80.447 234.789 80.447C235.514 80.447 236.138 80.6337 236.661 81.007C237.194 81.3697 237.546 81.8657 237.717 82.495H237.525L237.701 80.591H238.949C238.917 80.9004 238.885 81.215 238.853 81.535C238.831 81.8444 238.821 82.1484 238.821 82.447V88.623H237.525V86.735H237.701C237.53 87.3644 237.178 87.8604 236.645 88.223C236.111 88.5857 235.493 88.767 234.789 88.767ZM235.045 87.711C235.813 87.711 236.421 87.4497 236.869 86.927C237.317 86.3937 237.541 85.6204 237.541 84.607C237.541 83.583 237.317 82.8097 236.869 82.287C236.421 81.7537 235.813 81.487 235.045 81.487C234.287 81.487 233.679 81.7537 233.221 82.287C232.773 82.8097 232.549 83.583 232.549 84.607C232.549 85.6204 232.773 86.3937 233.221 86.927C233.679 87.4497 234.287 87.711 235.045 87.711ZM245.642 88.623V77.343H250.234C251.418 77.343 252.33 77.631 252.97 78.207C253.61 78.7724 253.93 79.5617 253.93 80.575C253.93 81.567 253.61 82.3564 252.97 82.943C252.33 83.519 251.418 83.807 250.234 83.807H246.97V88.623H245.642ZM246.97 82.703H250.106C250.928 82.703 251.546 82.5164 251.962 82.143C252.389 81.7697 252.602 81.247 252.602 80.575C252.602 79.8924 252.389 79.3644 251.962 78.991C251.546 78.6177 250.928 78.431 250.106 78.431H246.97V82.703ZM258.659 88.767C257.709 88.767 256.989 88.5057 256.499 87.983C256.019 87.4604 255.779 86.6604 255.779 85.583V80.591H257.075V85.551C257.075 86.287 257.224 86.831 257.523 87.183C257.821 87.5244 258.285 87.695 258.915 87.695C259.619 87.695 260.184 87.4657 260.611 87.007C261.037 86.5484 261.251 85.935 261.251 85.167V80.591H262.547V88.623H261.283V86.815H261.491C261.267 87.4337 260.904 87.9137 260.403 88.255C259.912 88.5964 259.331 88.767 258.659 88.767ZM265.061 88.623V82.447C265.061 82.1484 265.045 81.8444 265.013 81.535C264.992 81.215 264.965 80.9004 264.933 80.591H266.181L266.341 82.351H266.149C266.384 81.7324 266.757 81.263 267.269 80.943C267.792 80.6124 268.394 80.447 269.077 80.447C270.026 80.447 270.741 80.703 271.221 81.215C271.712 81.7164 271.957 82.511 271.957 83.599V88.623H270.661V83.679C270.661 82.9217 270.506 82.3724 270.197 82.031C269.898 81.679 269.429 81.503 268.789 81.503C268.042 81.503 267.45 81.7324 267.013 82.191C266.576 82.6497 266.357 83.263 266.357 84.031V88.623H265.061ZM274.038 92.255L273.734 91.183C274.235 91.0657 274.651 90.927 274.982 90.767C275.323 90.6177 275.606 90.415 275.83 90.159C276.054 89.903 276.246 89.583 276.406 89.199L276.822 88.255L276.79 88.799L273.286 80.591H274.694L277.59 87.647H277.174L280.038 80.591H281.398L277.686 89.295C277.472 89.807 277.238 90.2337 276.982 90.575C276.726 90.927 276.448 91.2097 276.15 91.423C275.862 91.647 275.542 91.823 275.19 91.951C274.838 92.079 274.454 92.1804 274.038 92.255ZM285.758 88.767C285.043 88.767 284.419 88.6017 283.886 88.271C283.352 87.9297 282.936 87.4497 282.638 86.831C282.35 86.2124 282.206 85.471 282.206 84.607C282.206 83.7324 282.35 82.9857 282.638 82.367C282.936 81.7484 283.352 81.2737 283.886 80.943C284.419 80.6124 285.043 80.447 285.758 80.447C286.483 80.447 287.107 80.6337 287.63 81.007C288.163 81.3697 288.515 81.8657 288.686 82.495H288.494L288.67 80.591H289.918C289.886 80.9004 289.854 81.215 289.822 81.535C289.8 81.8444 289.79 82.1484 289.79 82.447V88.623H288.494V86.735H288.67C288.499 87.3644 288.147 87.8604 287.614 88.223C287.08 88.5857 286.462 88.767 285.758 88.767ZM286.014 87.711C286.782 87.711 287.39 87.4497 287.838 86.927C288.286 86.3937 288.51 85.6204 288.51 84.607C288.51 83.583 288.286 82.8097 287.838 82.287C287.39 81.7537 286.782 81.487 286.014 81.487C285.256 81.487 284.648 81.7537 284.19 82.287C283.742 82.8097 283.518 83.583 283.518 84.607C283.518 85.6204 283.742 86.3937 284.19 86.927C284.648 87.4497 285.256 87.711 286.014 87.711ZM301.795 88.767C300.558 88.767 299.523 88.5377 298.691 88.079C297.859 87.6204 297.235 86.959 296.819 86.095C296.403 85.231 296.195 84.1964 296.195 82.991C296.195 81.7964 296.414 80.767 296.851 79.903C297.288 79.039 297.918 78.3724 298.739 77.903C299.56 77.4337 300.552 77.199 301.715 77.199C302.536 77.199 303.246 77.3217 303.843 77.567C304.451 77.8017 304.995 78.1537 305.475 78.623L304.979 79.663C304.627 79.3537 304.286 79.1084 303.955 78.927C303.635 78.7457 303.299 78.6124 302.947 78.527C302.595 78.431 302.184 78.383 301.715 78.383C300.382 78.383 299.358 78.7884 298.643 79.599C297.939 80.399 297.587 81.535 297.587 83.007C297.587 84.4897 297.928 85.6257 298.611 86.415C299.304 87.2044 300.376 87.599 301.827 87.599C302.36 87.599 302.867 87.551 303.347 87.455C303.838 87.3484 304.312 87.199 304.771 87.007L304.483 87.727V83.759H301.603V82.719H305.619V87.951C305.16 88.1964 304.579 88.3937 303.875 88.543C303.182 88.6924 302.488 88.767 301.795 88.767ZM311.226 88.767C310.512 88.767 309.888 88.6017 309.354 88.271C308.821 87.9297 308.405 87.4497 308.106 86.831C307.818 86.2124 307.674 85.471 307.674 84.607C307.674 83.7324 307.818 82.9857 308.106 82.367C308.405 81.7484 308.821 81.2737 309.354 80.943C309.888 80.6124 310.512 80.447 311.226 80.447C311.952 80.447 312.576 80.6337 313.098 81.007C313.632 81.3697 313.984 81.8657 314.154 82.495H313.962L314.138 80.591H315.386C315.354 80.9004 315.322 81.215 315.29 81.535C315.269 81.8444 315.258 82.1484 315.258 82.447V88.623H313.962V86.735H314.138C313.968 87.3644 313.616 87.8604 313.082 88.223C312.549 88.5857 311.93 88.767 311.226 88.767ZM311.482 87.711C312.25 87.711 312.858 87.4497 313.306 86.927C313.754 86.3937 313.978 85.6204 313.978 84.607C313.978 83.583 313.754 82.8097 313.306 82.287C312.858 81.7537 312.25 81.487 311.482 81.487C310.725 81.487 310.117 81.7537 309.658 82.287C309.21 82.8097 308.986 83.583 308.986 84.607C308.986 85.6204 309.21 86.3937 309.658 86.927C310.117 87.4497 310.725 87.711 311.482 87.711ZM317.366 92.255L317.062 91.183C317.563 91.0657 317.979 90.927 318.31 90.767C318.651 90.6177 318.934 90.415 319.158 90.159C319.382 89.903 319.574 89.583 319.734 89.199L320.15 88.255L320.118 88.799L316.614 80.591H318.022L320.918 87.647H320.502L323.366 80.591H324.726L321.014 89.295C320.801 89.807 320.566 90.2337 320.31 90.575C320.054 90.927 319.777 91.2097 319.478 91.423C319.19 91.647 318.87 91.823 318.518 91.951C318.166 92.079 317.782 92.1804 317.366 92.255ZM329.086 88.767C328.371 88.767 327.747 88.6017 327.214 88.271C326.68 87.9297 326.264 87.4497 325.966 86.831C325.678 86.2124 325.534 85.471 325.534 84.607C325.534 83.7324 325.678 82.9857 325.966 82.367C326.264 81.7484 326.68 81.2737 327.214 80.943C327.747 80.6124 328.371 80.447 329.086 80.447C329.811 80.447 330.435 80.6337 330.958 81.007C331.491 81.3697 331.843 81.8657 332.014 82.495H331.822L331.998 80.591H333.246C333.214 80.9004 333.182 81.215 333.15 81.535C333.128 81.8444 333.118 82.1484 333.118 82.447V88.623H331.822V86.735H331.998C331.827 87.3644 331.475 87.8604 330.942 88.223C330.408 88.5857 329.79 88.767 329.086 88.767ZM329.342 87.711C330.11 87.711 330.718 87.4497 331.166 86.927C331.614 86.3937 331.838 85.6204 331.838 84.607C331.838 83.583 331.614 82.8097 331.166 82.287C330.718 81.7537 330.11 81.487 329.342 81.487C328.584 81.487 327.976 81.7537 327.518 82.287C327.07 82.8097 326.846 83.583 326.846 84.607C326.846 85.6204 327.07 86.3937 327.518 86.927C327.976 87.4497 328.584 87.711 329.342 87.711ZM336.039 90.447L335.431 89.983C335.719 89.6844 335.906 89.4017 335.991 89.135C336.087 88.879 336.135 88.6177 336.135 88.351L336.423 88.623H335.367V86.991H336.999V88.143C336.999 88.5697 336.93 88.9697 336.791 89.343C336.653 89.727 336.402 90.095 336.039 90.447ZM172.736 108.623V97.343H174.064V102.463H174.096L179.504 97.343H181.2L174.976 103.167L174.992 102.495L181.648 108.623H179.904L174.096 103.311H174.064V108.623H172.736ZM185.789 108.767C185.074 108.767 184.45 108.602 183.917 108.271C183.383 107.93 182.967 107.45 182.669 106.831C182.381 106.212 182.237 105.471 182.237 104.607C182.237 103.732 182.381 102.986 182.669 102.367C182.967 101.748 183.383 101.274 183.917 100.943C184.45 100.612 185.074 100.447 185.789 100.447C186.514 100.447 187.138 100.634 187.661 101.007C188.194 101.37 188.546 101.866 188.717 102.495H188.525L188.701 100.591H189.949C189.917 100.9 189.885 101.215 189.853 101.535C189.831 101.844 189.821 102.148 189.821 102.447V108.623H188.525V106.735H188.701C188.53 107.364 188.178 107.86 187.645 108.223C187.111 108.586 186.493 108.767 185.789 108.767ZM186.045 107.711C186.813 107.711 187.421 107.45 187.869 106.927C188.317 106.394 188.541 105.62 188.541 104.607C188.541 103.583 188.317 102.81 187.869 102.287C187.421 101.754 186.813 101.487 186.045 101.487C185.287 101.487 184.679 101.754 184.221 102.287C183.773 102.81 183.549 103.583 183.549 104.607C183.549 105.62 183.773 106.394 184.221 106.927C184.679 107.45 185.287 107.711 186.045 107.711ZM192.327 108.623V102.447C192.327 102.148 192.311 101.844 192.279 101.535C192.257 101.215 192.231 100.9 192.199 100.591H193.447L193.607 102.351H193.414C193.628 101.743 193.964 101.274 194.423 100.943C194.892 100.612 195.457 100.447 196.119 100.447C196.791 100.447 197.335 100.607 197.751 100.927C198.177 101.247 198.465 101.743 198.615 102.415H198.375C198.577 101.807 198.935 101.327 199.447 100.975C199.959 100.623 200.556 100.447 201.239 100.447C202.124 100.447 202.791 100.703 203.239 101.215C203.687 101.716 203.911 102.511 203.911 103.599V108.623H202.615V103.679C202.615 102.922 202.481 102.372 202.215 102.031C201.948 101.679 201.521 101.503 200.935 101.503C200.263 101.503 199.729 101.738 199.335 102.207C198.951 102.666 198.759 103.284 198.759 104.063V108.623H197.463V103.679C197.463 102.922 197.329 102.372 197.063 102.031C196.796 101.679 196.369 101.503 195.783 101.503C195.111 101.503 194.583 101.738 194.199 102.207C193.815 102.666 193.623 103.284 193.623 104.063V108.623H192.327ZM206.373 108.623V100.591H207.669V108.623H206.373ZM206.213 98.767V97.311H207.813V98.767H206.213ZM214.502 108.623V97.343H219.094C220.278 97.343 221.19 97.631 221.83 98.207C222.47 98.7724 222.79 99.5617 222.79 100.575C222.79 101.567 222.47 102.356 221.83 102.943C221.19 103.519 220.278 103.807 219.094 103.807H215.83V108.623H214.502ZM215.83 102.703H218.966C219.787 102.703 220.406 102.516 220.822 102.143C221.248 101.77 221.462 101.247 221.462 100.575C221.462 99.8924 221.248 99.3644 220.822 98.991C220.406 98.6177 219.787 98.431 218.966 98.431H215.83V102.703ZM227.518 108.767C226.569 108.767 225.849 108.506 225.358 107.983C224.878 107.46 224.638 106.66 224.638 105.583V100.591H225.934V105.551C225.934 106.287 226.083 106.831 226.382 107.183C226.681 107.524 227.145 107.695 227.774 107.695C228.478 107.695 229.043 107.466 229.47 107.007C229.897 106.548 230.11 105.935 230.11 105.167V100.591H231.406V108.623H230.142V106.815H230.35C230.126 107.434 229.763 107.914 229.262 108.255C228.771 108.596 228.19 108.767 227.518 108.767ZM233.92 108.623V102.447C233.92 102.148 233.904 101.844 233.872 101.535C233.851 101.215 233.824 100.9 233.792 100.591H235.04L235.2 102.351H235.008C235.243 101.732 235.616 101.263 236.128 100.943C236.651 100.612 237.254 100.447 237.936 100.447C238.886 100.447 239.6 100.703 240.08 101.215C240.571 101.716 240.816 102.511 240.816 103.599V108.623H239.52V103.679C239.52 102.922 239.366 102.372 239.056 102.031C238.758 101.679 238.288 101.503 237.648 101.503C236.902 101.503 236.31 101.732 235.872 102.191C235.435 102.65 235.216 103.263 235.216 104.031V108.623H233.92ZM242.897 112.255L242.593 111.183C243.094 111.066 243.51 110.927 243.841 110.767C244.182 110.618 244.465 110.415 244.689 110.159C244.913 109.903 245.105 109.583 245.265 109.199L245.681 108.255L245.649 108.799L242.145 100.591H243.553L246.449 107.647H246.033L248.897 100.591H250.257L246.545 109.295C246.332 109.807 246.097 110.234 245.841 110.575C245.585 110.927 245.308 111.21 245.009 111.423C244.721 111.647 244.401 111.823 244.049 111.951C243.697 112.079 243.313 112.18 242.897 112.255ZM254.617 108.767C253.902 108.767 253.278 108.602 252.745 108.271C252.212 107.93 251.796 107.45 251.497 106.831C251.209 106.212 251.065 105.471 251.065 104.607C251.065 103.732 251.209 102.986 251.497 102.367C251.796 101.748 252.212 101.274 252.745 100.943C253.278 100.612 253.902 100.447 254.617 100.447C255.342 100.447 255.966 100.634 256.489 101.007C257.022 101.37 257.374 101.866 257.545 102.495H257.353L257.529 100.591H258.777C258.745 100.9 258.713 101.215 258.681 101.535C258.66 101.844 258.649 102.148 258.649 102.447V108.623H257.353V106.735H257.529C257.358 107.364 257.006 107.86 256.473 108.223C255.94 108.586 255.321 108.767 254.617 108.767ZM254.873 107.711C255.641 107.711 256.249 107.45 256.697 106.927C257.145 106.394 257.369 105.62 257.369 104.607C257.369 103.583 257.145 102.81 256.697 102.287C256.249 101.754 255.641 101.487 254.873 101.487C254.116 101.487 253.508 101.754 253.049 102.287C252.601 102.81 252.377 103.583 252.377 104.607C252.377 105.62 252.601 106.394 253.049 106.927C253.508 107.45 254.116 107.711 254.873 107.711ZM268.207 108.623V98.463H264.223V97.343H273.503V98.463H269.535V108.623H268.207ZM277.332 108.767C276.073 108.767 275.081 108.404 274.356 107.679C273.631 106.943 273.268 105.924 273.268 104.623C273.268 103.78 273.428 103.05 273.748 102.431C274.068 101.802 274.516 101.316 275.092 100.975C275.668 100.623 276.329 100.447 277.076 100.447C277.812 100.447 278.431 100.602 278.932 100.911C279.433 101.22 279.817 101.663 280.084 102.239C280.351 102.804 280.484 103.476 280.484 104.255V104.735H274.26V103.919H279.636L279.364 104.127C279.364 103.274 279.172 102.607 278.788 102.127C278.404 101.647 277.833 101.407 277.076 101.407C276.276 101.407 275.652 101.69 275.204 102.255C274.756 102.81 274.532 103.562 274.532 104.511V104.655C274.532 105.658 274.777 106.42 275.268 106.943C275.769 107.455 276.468 107.711 277.364 107.711C277.844 107.711 278.292 107.642 278.708 107.503C279.135 107.354 279.54 107.114 279.924 106.783L280.372 107.695C280.02 108.036 279.572 108.303 279.028 108.495C278.495 108.676 277.929 108.767 277.332 108.767ZM282.467 108.623V96.847H283.763V104.159H283.795L287.523 100.591H289.155L284.755 104.783L284.787 104.127L289.571 108.623H287.891L283.795 104.847H283.763V108.623H282.467ZM290.702 108.623V102.447C290.702 102.148 290.686 101.844 290.654 101.535C290.632 101.215 290.606 100.9 290.574 100.591H291.822L291.982 102.351H291.789C292.024 101.732 292.398 101.263 292.91 100.943C293.432 100.612 294.035 100.447 294.718 100.447C295.667 100.447 296.382 100.703 296.862 101.215C297.352 101.716 297.598 102.511 297.598 103.599V108.623H296.302V103.679C296.302 102.922 296.147 102.372 295.838 102.031C295.539 101.679 295.07 101.503 294.43 101.503C293.683 101.503 293.091 101.732 292.654 102.191C292.216 102.65 291.998 103.263 291.998 104.031V108.623H290.702ZM303.373 108.767C302.605 108.767 301.933 108.602 301.357 108.271C300.791 107.93 300.354 107.45 300.045 106.831C299.735 106.202 299.581 105.46 299.581 104.607C299.581 103.743 299.735 103.002 300.045 102.383C300.354 101.764 300.791 101.29 301.357 100.959C301.933 100.618 302.605 100.447 303.373 100.447C304.151 100.447 304.823 100.618 305.389 100.959C305.965 101.29 306.407 101.764 306.717 102.383C307.037 103.002 307.197 103.743 307.197 104.607C307.197 105.46 307.037 106.202 306.717 106.831C306.407 107.45 305.965 107.93 305.389 108.271C304.823 108.602 304.151 108.767 303.373 108.767ZM303.373 107.711C304.141 107.711 304.749 107.45 305.197 106.927C305.645 106.394 305.869 105.62 305.869 104.607C305.869 103.583 305.639 102.81 305.181 102.287C304.733 101.754 304.13 101.487 303.373 101.487C302.615 101.487 302.013 101.754 301.565 102.287C301.117 102.81 300.893 103.583 300.893 104.607C300.893 105.62 301.117 106.394 301.565 106.927C302.013 107.45 302.615 107.711 303.373 107.711ZM309.217 108.623V96.847H310.513V108.623H309.217ZM316.326 108.767C315.558 108.767 314.886 108.602 314.31 108.271C313.744 107.93 313.307 107.45 312.998 106.831C312.688 106.202 312.534 105.46 312.534 104.607C312.534 103.743 312.688 103.002 312.998 102.383C313.307 101.764 313.744 101.29 314.31 100.959C314.886 100.618 315.558 100.447 316.326 100.447C317.104 100.447 317.776 100.618 318.342 100.959C318.918 101.29 319.36 101.764 319.67 102.383C319.99 103.002 320.15 103.743 320.15 104.607C320.15 105.46 319.99 106.202 319.67 106.831C319.36 107.45 318.918 107.93 318.342 108.271C317.776 108.602 317.104 108.767 316.326 108.767ZM316.326 107.711C317.094 107.711 317.702 107.45 318.15 106.927C318.598 106.394 318.822 105.62 318.822 104.607C318.822 103.583 318.592 102.81 318.134 102.287C317.686 101.754 317.083 101.487 316.326 101.487C315.568 101.487 314.966 101.754 314.518 102.287C314.07 102.81 313.846 103.583 313.846 104.607C313.846 105.62 314.07 106.394 314.518 106.927C314.966 107.45 315.568 107.711 316.326 107.711ZM325.706 112.191C325.013 112.191 324.373 112.106 323.786 111.935C323.2 111.764 322.672 111.503 322.202 111.151L322.586 110.175C322.917 110.41 323.242 110.596 323.562 110.735C323.882 110.874 324.213 110.975 324.554 111.039C324.896 111.114 325.258 111.151 325.642 111.151C326.432 111.151 327.029 110.943 327.434 110.527C327.84 110.111 328.042 109.519 328.042 108.751V106.399H328.202C328.032 107.028 327.68 107.53 327.146 107.903C326.613 108.266 325.989 108.447 325.274 108.447C324.538 108.447 323.898 108.287 323.354 107.967C322.821 107.636 322.405 107.172 322.106 106.575C321.818 105.967 321.674 105.252 321.674 104.431C321.674 103.62 321.818 102.916 322.106 102.319C322.405 101.722 322.821 101.263 323.354 100.943C323.898 100.612 324.538 100.447 325.274 100.447C326 100.447 326.624 100.628 327.146 100.991C327.68 101.354 328.032 101.855 328.202 102.495L328.042 102.335L328.186 100.591H329.45C329.408 100.9 329.376 101.215 329.354 101.535C329.333 101.844 329.322 102.148 329.322 102.447V108.575C329.322 109.77 329.013 110.671 328.394 111.279C327.786 111.887 326.89 112.191 325.706 112.191ZM325.514 107.391C326.293 107.391 326.906 107.135 327.354 106.623C327.802 106.1 328.026 105.37 328.026 104.431C328.026 103.492 327.802 102.767 327.354 102.255C326.906 101.743 326.293 101.487 325.514 101.487C324.746 101.487 324.133 101.743 323.674 102.255C323.216 102.767 322.986 103.492 322.986 104.431C322.986 105.37 323.216 106.1 323.674 106.623C324.133 107.135 324.746 107.391 325.514 107.391ZM331.811 108.623V100.591H333.107V108.623H331.811ZM331.651 98.767V97.311H333.251V98.767H331.651ZM335.367 108.623V106.991H336.999V108.623H335.367Z" fill="white"/>
</svg>
