<svg width="64" height="64" viewBox="0 0 64 64" fill="none" xmlns="http://www.w3.org/2000/svg">
<g filter="url(#filter0_d_41_611)">
<circle cx="32" cy="28" r="28" fill="white"/>
</g>
<path d="M53.2452 23.7565H51.4999V23.6666H31.9999V32.3333H44.2448C42.4584 37.3783 37.6582 40.9999 31.9999 40.9999C24.8207 40.9999 18.9999 35.1792 18.9999 27.9999C18.9999 20.8207 24.8207 14.9999 31.9999 14.9999C35.3138 14.9999 38.3288 16.2501 40.6243 18.2922L46.7528 12.1638C42.8831 8.55734 37.7069 6.33325 31.9999 6.33325C20.0345 6.33325 10.3333 16.0345 10.3333 27.9999C10.3333 39.9653 20.0345 49.6666 31.9999 49.6666C43.9653 49.6666 53.6666 39.9653 53.6666 27.9999C53.6666 26.5472 53.5171 25.1291 53.2452 23.7565Z" fill="#FFC107"/>
<path d="M12.8315 17.9152L19.9501 23.1358C21.8763 18.3669 26.5411 14.9999 32 14.9999C35.314 14.9999 38.3289 16.2501 40.6245 18.2922L46.7529 12.1638C42.8832 8.55734 37.707 6.33325 32 6.33325C23.6779 6.33325 16.4607 11.0317 12.8315 17.9152Z" fill="#FF3D00"/>
<path d="M31.9999 49.6667C37.5964 49.6667 42.6816 47.5249 46.5263 44.042L39.8205 38.3675C37.5721 40.0774 34.8247 41.0022 31.9999 41C26.3644 41 21.5793 37.4066 19.7767 32.3918L12.7112 37.8356C16.297 44.8523 23.5792 49.6667 31.9999 49.6667Z" fill="#4CAF50"/>
<path d="M53.2452 23.7567H51.5V23.6667H32V32.3334H44.2449C43.3904 34.7345 41.8511 36.8327 39.8173 38.3687L39.8206 38.3665L46.5264 44.041C46.0519 44.4722 53.6667 38.8334 53.6667 28.0001C53.6667 26.5473 53.5172 25.1292 53.2452 23.7567Z" fill="#1976D2"/>
<defs>
<filter id="filter0_d_41_611" x="0" y="0" width="64" height="64" filterUnits="userSpaceOnUse" color-interpolation-filters="sRGB">
<feFlood flood-opacity="0" result="BackgroundImageFix"/>
<feColorMatrix in="SourceAlpha" type="matrix" values="0 0 0 0 0 0 0 0 0 0 0 0 0 0 0 0 0 0 127 0" result="hardAlpha"/>
<feOffset dy="4"/>
<feGaussianBlur stdDeviation="2"/>
<feComposite in2="hardAlpha" operator="out"/>
<feColorMatrix type="matrix" values="0 0 0 0 0 0 0 0 0 0 0 0 0 0 0 0 0 0 0.25 0"/>
<feBlend mode="normal" in2="BackgroundImageFix" result="effect1_dropShadow_41_611"/>
<feBlend mode="normal" in="SourceGraphic" in2="effect1_dropShadow_41_611" result="shape"/>
</filter>
</defs>
</svg>
