<svg width="242" height="299" viewBox="0 0 242 299" fill="none" xmlns="http://www.w3.org/2000/svg">
<path opacity="0.3" d="M122.303 5.06217C104.308 13.3558 94.9013 32.8313 83.6641 49.1845C74.3876 62.6587 63.1339 74.6522 50.2836 84.7594C40.7213 92.2725 30.2825 98.7318 21.6161 107.26C10.4094 118.007 3.03372 132.144 0.62181 147.499C-0.526555 155.131 -0.0809126 162.919 1.93051 170.369C3.94193 177.82 7.47531 184.771 12.3069 190.782C21.7524 201.983 35.5019 208.345 47.7908 216.326C59.5594 223.964 70.1994 233.219 79.399 243.822C85.5337 250.925 91.0841 258.595 97.3552 265.503C114.006 283.554 140.59 297.37 165.752 293.818C213.038 287.164 246.75 236.368 241.452 190.196C238.998 168.73 229.962 148.299 217.712 130.482C208.968 117.739 198.393 105.894 193.134 91.3358C187.389 75.412 188.577 57.8684 185.519 41.203C179.794 10.4482 152.528 -8.83216 122.303 5.06217Z" fill="#037EE6"/>
<path d="M179.794 21.4153H56.7301C43.7791 21.4153 33.2625 29.6894 33.2625 39.915V260.429C33.2625 270.655 43.7791 278.948 56.7301 278.948H179.794C192.745 278.948 203.164 270.655 203.164 260.429V39.915C203.164 29.6894 192.648 21.4153 179.794 21.4153Z" fill="#5A5A5A"/>
<path d="M179.034 27.2698H57.3921C47.6545 27.2698 39.6501 33.5339 39.6501 41.2617V259.083C39.6501 266.888 47.596 273.075 57.3921 273.075H179.034C188.772 273.075 196.776 266.81 196.776 259.083V41.2617C196.776 33.5339 188.83 27.2698 179.034 27.2698Z" fill="#E3ECFF"/>
<path d="M27.4782 93.2089C23.8936 93.2089 20.4558 91.782 17.9211 89.2422C15.3864 86.7024 13.9624 83.2576 13.9624 79.6658L45.2785 27.3083H72.2907L40.9745 79.5487C40.9899 81.3354 40.6524 83.1075 39.9813 84.7629C39.3102 86.4182 38.3188 87.9242 37.0642 89.194C35.8097 90.4637 34.3168 91.4722 32.6716 92.1613C31.0264 92.8503 29.2614 93.2064 27.4782 93.2089Z" fill="#037EE6"/>
<path d="M54.4319 93.2093C52.6487 93.2067 50.8837 92.8507 49.2385 92.1616C47.5932 91.4726 46.1004 90.4641 44.8458 89.1944C43.5913 87.9246 42.5999 86.4186 41.9288 84.7632C41.2577 83.1079 40.9201 81.3358 40.9356 79.5491L72.2517 27.1917H99.2638L67.9477 79.5491C67.9631 81.3374 67.6249 83.1111 66.9526 84.7678C66.2803 86.4244 65.2871 87.9312 64.0305 89.2013C62.7739 90.4713 61.2788 91.4794 59.6313 92.1673C57.9838 92.8552 56.2167 93.2093 54.4319 93.2093V93.2093Z" fill="#03EB97"/>
<path d="M81.405 93.2089C77.8238 93.2037 74.391 91.7746 71.8605 89.2353C69.33 86.696 67.9087 83.2543 67.9087 79.6658L99.2053 27.3083H126.237L94.9208 79.5487C94.9362 81.337 94.598 83.1107 93.9257 84.7674C93.2534 86.424 92.2603 87.9309 91.0037 89.2009C89.7471 90.4709 88.2519 91.479 86.6044 92.1669C84.9569 92.8548 83.1898 93.2089 81.405 93.2089Z" fill="#037EE6"/>
<path d="M108.378 93.2089C104.794 93.2089 101.356 91.782 98.8212 89.2422C96.2865 86.7024 94.8625 83.2576 94.8625 79.6658L126.179 27.3083H153.191L121.875 79.5487C121.89 81.3354 121.553 83.1075 120.881 84.7629C120.21 86.4182 119.219 87.9242 117.964 89.194C116.71 90.4637 115.217 91.4722 113.572 92.1613C111.927 92.8503 110.162 93.2064 108.378 93.2089Z" fill="#03EB97"/>
<path d="M135.351 93.2089C131.767 93.2089 128.329 91.782 125.794 89.2422C123.26 86.7024 121.836 83.2576 121.836 79.6658L153.152 27.3083H180.164L148.848 79.5487C148.863 81.3354 148.526 83.1075 147.854 84.7629C147.183 86.4182 146.192 87.9242 144.937 89.194C143.683 90.4637 142.19 91.4722 140.545 92.1613C138.9 92.8503 137.134 93.2064 135.351 93.2089Z" fill="#037EE6"/>
<path d="M180.216 27.271L148.667 79.5643C148.598 81.3847 149.428 83.1851 150.075 84.8873C150.723 86.5896 151.707 88.1434 152.968 89.4558C154.229 90.7682 155.741 91.8122 157.414 92.5253C159.087 93.2384 160.886 93.606 162.704 93.606C164.523 93.606 166.322 93.2384 167.995 92.5253C169.668 91.8122 171.18 90.7682 172.441 89.4558C173.702 88.1434 174.686 86.5896 175.334 84.8873C175.981 83.1851 176.279 81.3694 176.21 79.5489L196.971 44.8131V41.1834C196.971 33.8654 189.428 27.7589 180.216 27.271Z" fill="#03EB97"/>
<path d="M138.448 230.279H82.5347V233.733H138.448V230.279Z" fill="#7AA5EA"/>
<path d="M138.448 222.239H82.5347V225.693H138.448V222.239Z" fill="#7AA5EA"/>
<path d="M138.448 238.299H82.5347V241.753H138.448V238.299Z" fill="#7AA5EA"/>
<path d="M152.606 222.239H145.128V229.732H152.606V222.239Z" fill="#037EE6"/>
<path d="M152.606 233.733H145.128V241.227H152.606V233.733Z" fill="#03EB97"/>
<path d="M34.0806 297.741C33.4543 297.33 32.9151 296.8 32.4938 296.18C32.0724 295.56 31.7773 294.863 31.6253 294.129C31.4734 293.395 31.4675 292.638 31.6081 291.901C31.7487 291.165 32.033 290.463 32.4447 289.837L58.1909 250.613L67.7143 256.897L41.9486 296.16C41.5362 296.782 41.0053 297.317 40.3864 297.733C39.7675 298.149 39.0727 298.439 38.3418 298.586C37.611 298.733 36.8584 298.734 36.1272 298.589C35.396 298.444 34.7005 298.155 34.0806 297.741V297.741Z" fill="#8C968C"/>
<path d="M75.5315 248.542L62.2551 239.79L52.8145 254.169L66.0908 262.921L75.5315 248.542Z" fill="#323232"/>
<path opacity="0.31" d="M126.743 212.658C124.434 216.176 121.135 218.929 117.265 220.569C113.394 222.208 109.125 222.661 104.998 221.87C100.87 221.078 97.0695 219.078 94.0764 216.123C91.0833 213.167 89.0322 209.388 88.1824 205.264C87.3326 201.14 87.7223 196.857 89.3022 192.955C90.8821 189.053 93.5813 185.708 97.0584 183.343C100.535 180.978 104.634 179.7 108.837 179.669C113.039 179.638 117.156 180.857 120.667 183.171C125.375 186.274 128.66 191.124 129.799 196.653C130.939 202.183 129.839 207.94 126.743 212.658V212.658Z" fill="white"/>
<path opacity="0.31" d="M104.177 250.902C129.512 245.613 145.77 220.746 140.491 195.36C135.213 169.975 110.396 153.683 85.0611 158.973C59.7266 164.262 43.4683 189.129 48.7471 214.515C54.0259 239.901 78.8429 256.192 104.177 250.902Z" fill="white"/>
<path d="M104.177 250.902C129.512 245.613 145.77 220.746 140.491 195.36C135.213 169.975 110.396 153.683 85.0611 158.973C59.7266 164.262 43.4683 189.129 48.7471 214.515C54.0259 239.901 78.8429 256.192 104.177 250.902Z" stroke="#646464" stroke-width="4" stroke-miterlimit="10"/>
</svg>
