<svg width="360" height="327" viewBox="0 0 360 327" fill="none" xmlns="http://www.w3.org/2000/svg">
<g clip-path="url(#clip0_106_8)">
<path d="M196.456 11.825H-2V145.47H196.456V11.825Z" fill="#CDDDF9"/>
<path d="M113.283 60.4602H-2V66.5362H113.283V60.4602Z" fill="#AEC5E5"/>
<path d="M196.456 89.8323H120.936V95.9083H196.456V89.8323Z" fill="#AEC5E5"/>
<path d="M120.936 11.825H113.283V145.47H120.936V11.825Z" fill="#AEC5E5"/>
<path d="M61.3878 0C54.4359 0 47.7687 2.70411 42.853 7.51748C37.9372 12.3309 35.1757 18.8592 35.1757 25.6663C35.1757 39.8346 61.3878 64.2203 61.3878 64.2203C61.3878 64.2203 87.5721 39.8346 87.5721 25.6663C87.5758 22.2971 86.9013 18.9601 85.587 15.8463C84.2728 12.7325 82.3446 9.90284 79.9127 7.51914C77.4809 5.13545 74.5932 3.24442 71.4145 1.95424C68.2359 0.664048 64.8287 -1.9025e-06 61.3878 0V0ZM61.3878 28.5272C59.7367 28.5272 58.1228 28.0478 56.75 27.1496C55.3772 26.2515 54.3072 24.9749 53.6754 23.4813C53.0436 21.9877 52.8783 20.3441 53.2004 18.7585C53.5225 17.173 54.3176 15.7165 55.485 14.5734C56.6525 13.4302 58.1399 12.6517 59.7592 12.3363C61.3785 12.0209 63.057 12.1828 64.5823 12.8014C66.1077 13.4201 67.4115 14.4678 68.3288 15.812C69.246 17.1562 69.7356 18.7366 69.7356 20.3532C69.7356 22.5211 68.8562 24.6002 67.2906 26.1331C65.7251 27.666 63.6018 28.5272 61.3878 28.5272V28.5272Z" fill="#037EE6"/>
<path d="M209.117 275.954H80.7548V198.982L124.637 122.01H209.117V275.954Z" fill="#7AA5EA"/>
<path d="M510.306 69.5061H209.117V275.981H510.306V69.5061Z" fill="#F5F5F5"/>
<path d="M80.7548 198.982H157.165V130.239H119.934L80.7548 198.982Z" fill="white"/>
<path d="M209.116 255.846H76.0521V280.204H209.116V255.846Z" fill="#037EE6"/>
<path d="M96.1148 234.049H87.0435V252.031H96.1148V234.049Z" fill="#037EE6"/>
<path d="M87.0435 234.049H77.9722V252.031H87.0435V234.049Z" fill="white"/>
<path d="M192.226 130.239H164.094V198.982H192.226V130.239Z" fill="#037EE6"/>
<path d="M382.028 255.846H209.117V280.204H382.028V255.846Z" fill="#7AA5EA"/>
<path d="M226.09 69.5061H209.117V255.846H226.09V69.5061Z" fill="#CDDDF9"/>
<path d="M193.087 292.521C196.685 270.911 181.712 250.537 159.643 247.014C137.574 243.491 116.767 258.153 113.169 279.762C109.57 301.371 124.544 321.745 146.613 325.268C168.682 328.792 189.489 314.13 193.087 292.521Z" fill="#037EE6"/>
<path d="M174.949 293.477C179.057 281.701 172.638 268.893 160.611 264.87C148.584 260.847 135.504 267.133 131.395 278.909C127.287 290.686 133.706 303.494 145.733 307.517C157.76 311.539 170.84 305.254 174.949 293.477Z" fill="#B4CCEF"/>
<path d="M153.131 305.462C164.149 305.462 173.082 296.716 173.082 285.926C173.082 275.137 164.149 266.39 153.131 266.39C142.112 266.39 133.179 275.137 133.179 285.926C133.179 296.716 142.112 305.462 153.131 305.462Z" fill="#E3ECFF"/>
<path d="M157.137 197.021H80.7548V198.982H157.137V197.021Z" fill="#037EE6"/>
<path d="M349.026 215.058H248.073V219.063H349.026V215.058Z" fill="#03EB97"/>
<path d="M276.567 138.277H175.614V142.282H276.567V138.277Z" fill="#03EB97"/>
<path d="M289.562 291.839H188.609V295.844H289.562V291.839Z" fill="#037EE6"/>
<path d="M396.525 230.043H295.572V234.049H396.525V230.043Z" fill="#03EB97"/>
</g>
<defs>
<clipPath id="clip0_106_8">
<rect width="384" height="326.96" fill="white" transform="translate(-2)"/>
</clipPath>
</defs>
</svg>
