<svg width="316" height="298" viewBox="0 0 316 298" fill="none" xmlns="http://www.w3.org/2000/svg">
<g clip-path="url(#clip0_106_9)">
<path d="M3.02717 41.6226C-4.85301 64.7678 4.54072 89.7414 9.60998 113.681C13.7725 133.443 14.9228 153.722 13.0216 173.829C11.6282 188.77 8.52892 203.615 8.76917 218.628C8.86037 237.773 15.2056 256.363 26.836 271.559C32.6924 279.076 40.0459 285.291 48.4295 289.81C56.8131 294.329 66.0435 297.052 75.5344 297.807C93.5531 298.866 110.923 291.961 128.389 287.702C145.198 283.62 162.5 281.943 179.779 282.722C191.311 283.227 202.819 284.839 214.375 285.008C244.646 285.393 279.554 273.291 297.741 247.74C331.953 199.621 315.207 126.408 269.488 91.979C248.178 75.9313 222.303 66.7166 195.995 62.5543C177.184 59.595 157.556 58.9935 140.162 51.3667C120.942 43.0181 106.406 27.0426 88.9163 15.6384C56.6989 -5.36546 16.2649 2.83881 3.02717 41.6226Z" fill="#CDDDF9"/>
<g style="mix-blend-mode:multiply">
<path d="M270.521 253.322H37.2146V265.423H270.521V253.322Z" fill="#5A5A5A"/>
</g>
<path d="M223.384 111.876H47.0409V256.112H223.384V111.876Z" fill="#037EE6"/>
<path d="M260.19 111.876H217.209V256.112H260.19V111.876Z" fill="#0060C8"/>
<path d="M89.9734 111.876H47.0408L23.0159 85.002H65.9484L89.9734 111.876Z" fill="#329CFF"/>
<path d="M217.209 111.876H260.142L284.167 85.002H241.234L217.209 111.876Z" fill="#329CFF"/>
<path d="M166.084 158.888H47.0409V221.034H166.084V158.888Z" fill="white"/>
<path d="M140.402 170.726H56.4827V175.61H140.402V170.726Z" fill="#037EE6"/>
<path d="M140.402 181.552H56.4827V186.436H140.402V181.552Z" fill="#037EE6"/>
<path d="M97.1088 192.355H56.4827V197.239H97.1088V192.355Z" fill="#037EE6"/>
<path d="M176.704 198.37C176.704 200.749 175.999 203.075 174.679 205.053C173.359 207.031 171.483 208.573 169.288 209.484C167.093 210.394 164.678 210.633 162.348 210.168C160.017 209.704 157.877 208.558 156.197 206.876C154.517 205.194 153.373 203.05 152.909 200.717C152.446 198.383 152.684 195.964 153.593 193.766C154.502 191.568 156.042 189.689 158.017 188.367C159.993 187.046 162.315 186.34 164.691 186.34C167.877 186.34 170.932 187.608 173.185 189.864C175.438 192.12 176.704 195.179 176.704 198.37Z" fill="#03EB97"/>
<path d="M120.533 53.9653L139.753 84.9778L170.745 65.7303C170.745 65.7303 193.857 54.0133 197.173 40.107C200.728 24.9255 192.031 13.4011 178.721 10.2733C174.687 9.32396 170.479 9.40355 166.483 10.5048C162.487 11.6061 158.831 13.6939 155.85 16.5769C154.468 12.667 152.126 9.16797 149.041 6.40156C145.955 3.63516 142.224 1.69024 138.191 0.745784C124.858 -2.38194 111.956 4.04194 108.4 19.2234C105.157 33.1538 120.533 53.9653 120.533 53.9653Z" fill="#03EB97"/>
</g>
<defs>
<clipPath id="clip0_106_9">
<rect width="316" height="298" fill="white"/>
</clipPath>
</defs>
</svg>
