<svg width="360" height="293" viewBox="0 0 360 293" fill="none" xmlns="http://www.w3.org/2000/svg">
<g clip-path="url(#clip0_106_8)">
<path d="M186.052 10.5969H0V130.361H186.052V10.5969Z" fill="#CDDDF9"/>
<path d="M108.078 54.1807H0V59.6256H108.078V54.1807Z" fill="#AEC5E5"/>
<path d="M186.052 80.5017H115.252V85.9466H186.052V80.5017Z" fill="#AEC5E5"/>
<path d="M115.252 10.5969H108.078V130.361H115.252V10.5969Z" fill="#AEC5E5"/>
<path d="M59.426 0C52.9086 0 46.6582 2.42325 42.0497 6.73668C37.4411 11.0501 34.8522 16.9004 34.8522 23.0005C34.8522 35.6972 59.426 57.5501 59.426 57.5501C59.426 57.5501 83.9739 35.6972 83.9739 23.0005C83.9773 19.9812 83.3449 16.9908 82.1128 14.2004C80.8807 11.41 79.073 8.87428 76.7932 6.73817C74.5134 4.60205 71.8061 2.90744 68.8261 1.75126C65.8461 0.595077 62.6519 -1.7049e-06 59.426 0ZM59.426 25.5643C57.8782 25.5643 56.3651 25.1346 55.0781 24.3297C53.7911 23.5249 52.788 22.3809 52.1957 21.0424C51.6033 19.7039 51.4484 18.2311 51.7503 16.8102C52.0523 15.3893 52.7977 14.0841 53.8922 13.0597C54.9867 12.0353 56.3811 11.3376 57.8993 11.055C59.4174 10.7723 60.9909 10.9174 62.4209 11.4718C63.851 12.0262 65.0733 12.9651 65.9332 14.1697C66.7932 15.3743 67.2521 16.7905 67.2521 18.2393C67.2521 20.182 66.4276 22.0451 64.96 23.4188C63.4923 24.7925 61.5016 25.5643 59.426 25.5643Z" fill="#037EE6"/>
<path d="M197.922 247.292H77.5826V178.315L118.722 109.338H197.922V247.292Z" fill="#7AA5EA"/>
<path d="M480.287 62.2869H197.922V247.316H480.287V62.2869Z" fill="#F5F5F5"/>
<path d="M77.5826 178.315H149.217V116.712H114.313L77.5826 178.315Z" fill="white"/>
<path d="M197.922 229.272H73.174V251.101H197.922V229.272Z" fill="#037EE6"/>
<path d="M91.9826 209.739H83.4783V225.854H91.9826V209.739Z" fill="#037EE6"/>
<path d="M83.4782 209.739H74.9739V225.854H83.4782V209.739Z" fill="white"/>
<path d="M182.087 116.712H155.713V178.315H182.087V116.712Z" fill="#037EE6"/>
<path d="M360.026 229.272H197.922V251.101H360.026V229.272Z" fill="#7AA5EA"/>
<path d="M213.835 62.2869H197.922V229.272H213.835V62.2869Z" fill="#CDDDF9"/>
<path d="M182.894 262.138C186.267 242.773 172.23 224.515 151.54 221.358C130.85 218.201 111.344 231.34 107.97 250.705C104.597 270.069 118.635 288.327 139.325 291.485C160.014 294.642 179.521 281.503 182.894 262.138Z" fill="#037EE6"/>
<path d="M165.89 262.995C169.741 252.442 163.723 240.965 152.448 237.36C141.173 233.755 128.91 239.387 125.058 249.941C121.207 260.494 127.225 271.972 138.5 275.576C149.775 279.181 162.038 273.549 165.89 262.995Z" fill="#B4CCEF"/>
<path d="M145.435 273.735C155.765 273.735 164.139 265.897 164.139 256.228C164.139 246.56 155.765 238.722 145.435 238.722C135.105 238.722 126.73 246.56 126.73 256.228C126.73 265.897 135.105 273.735 145.435 273.735Z" fill="#E3ECFF"/>
<path d="M149.191 176.557H77.5826V178.315H149.191V176.557Z" fill="#037EE6"/>
<path d="M329.087 192.721H234.443V196.31H329.087V192.721Z" fill="#03EB97"/>
<path d="M261.157 123.915H166.513V127.504H261.157V123.915Z" fill="#03EB97"/>
<path d="M273.339 261.527H178.696V265.116H273.339V261.527Z" fill="#037EE6"/>
<path d="M373.617 206.15H278.974V209.739H373.617V206.15Z" fill="#03EB97"/>
</g>
<defs>
<clipPath id="clip0_106_8">
<rect width="360" height="293" fill="white"/>
</clipPath>
</defs>
</svg>
